<?xml version="1.0" encoding="UTF-8" standalone="no"?>
<!-- Created with Inkscape (http://www.inkscape.org/) -->

<svg
   xmlns:dc="http://purl.org/dc/elements/1.1/"
   xmlns:cc="http://creativecommons.org/ns#"
   xmlns:rdf="http://www.w3.org/1999/02/22-rdf-syntax-ns#"
   xmlns:svg="http://www.w3.org/2000/svg"
   xmlns="http://www.w3.org/2000/svg"
   xmlns:sodipodi="http://sodipodi.sourceforge.net/DTD/sodipodi-0.dtd"
   xmlns:inkscape="http://www.inkscape.org/namespaces/inkscape"
   width="256px"
   height="256px"
   viewBox="0 0 256 256"
   version="1.1"
   id="SVGRoot"
   inkscape:version="0.92.3 (2405546, 2018-03-11)"
   sodipodi:docname="net.svg">
  <sodipodi:namedview
     id="base"
     pagecolor="#ffffff"
     bordercolor="#666666"
     borderopacity="1.0"
     inkscape:pageopacity="0.0"
     inkscape:pageshadow="2"
     inkscape:zoom="2.8284271"
     inkscape:cx="164.38207"
     inkscape:cy="128.66356"
     inkscape:document-units="px"
     inkscape:current-layer="layer1"
     showgrid="false"
     inkscape:window-width="3840"
     inkscape:window-height="2104"
     inkscape:window-x="-16"
     inkscape:window-y="-16"
     inkscape:window-maximized="1"
     inkscape:grid-bbox="true" />
  <defs
     id="defs10" />
  <metadata
     id="metadata13">
    <rdf:RDF>
      <cc:Work
         rdf:about="">
        <dc:format>image/svg+xml</dc:format>
        <dc:type
           rdf:resource="http://purl.org/dc/dcmitype/StillImage" />
        <dc:title></dc:title>
      </cc:Work>
    </rdf:RDF>
  </metadata>
  <g
     id="layer1"
     inkscape:groupmode="layer"
     inkscape:label="Layer 1">
    <path
       style="fill:#ffffff;stroke-width:0.27886739"
       d="m 132.72312,246.02898 c -0.15063,-0.39621 -0.40511,-0.63928 -0.56549,-0.54016 -0.16038,0.0991 -0.4708,0.0315 -0.68982,-0.15027 -0.31401,-0.26061 -0.59845,-0.20672 -1.34532,0.25486 -1.09532,0.67695 -1.8123,0.74824 -2.02227,0.20108 -0.2344,-0.61085 -3.1406,-0.45859 -3.34245,0.17512 -0.1807,0.5673 -1.45928,0.67153 -1.6649,0.13572 -0.10291,-0.26819 -1.0995,-0.32736 -4.17426,-0.24786 -3.0876,0.0798 -4.03906,0.0229 -4.03906,-0.24192 0,-0.24345 -0.3055,-0.29679 -1.02812,-0.17953 -0.56547,0.0918 -1.16155,0.0577 -1.32462,-0.0757 -0.16308,-0.13339 -1.61415,-0.51864 -3.22461,-0.85611 -3.00416,-0.62953 -3.68269,-0.87098 -4.53352,-1.61325 -0.26946,-0.23508 -0.77142,-0.56679 -1.11547,-0.73713 -0.45922,-0.22737 -0.68877,-0.67879 -0.86342,-1.69796 -0.13085,-0.76354 -0.33607,-1.63924 -0.45607,-1.94599 -0.32478,-0.83027 -0.31638,-1.79679 0.0286,-3.29015 0.26027,-1.12659 0.23946,-1.41505 -0.13162,-1.8251 -0.38416,-0.42449 -0.41205,-1.0761 -0.21726,-5.07587 0.12291,-2.52387 0.25378,-5.02807 0.29082,-5.56489 0.14029,-2.03316 -0.0695,-5.48716 -0.35033,-5.768 -0.10202,-0.10202 -0.20613,-3.01851 -0.23136,-6.48109 -0.0783,-10.74649 -0.12106,-14.86656 -0.17584,-16.94389 l -0.0528,-2.00341 -2.70381,0.1322 c -1.487096,0.0727 -2.836117,0.23716 -2.997824,0.36546 -0.161707,0.12829 -0.544993,0.14116 -0.851747,0.0286 -0.772223,-0.28336 -1.793491,0.23963 -1.988989,1.01856 -0.135203,0.53868 -0.345254,0.64936 -1.232404,0.64936 -0.693772,0 -1.197426,-0.17142 -1.433824,-0.48802 -0.200417,-0.26841 -0.748241,-0.51245 -1.217382,-0.54232 -0.737465,-0.047 -0.888536,0.0663 -1.11547,0.8366 -0.246106,0.83532 -0.332086,0.88476 -1.377953,0.79243 -1.384078,-0.1222 -2.179251,-0.52553 -1.992998,-1.0109 0.07982,-0.208 -0.09352,-0.43096 -0.396673,-0.51024 -0.415939,-0.10877 -0.538437,0.004 -0.538437,0.49611 0,0.83418 -0.568471,1.28085 -1.365014,1.07255 -0.518041,-0.13548 -0.616701,-0.31781 -0.521805,-0.96437 0.151835,-1.03452 -0.09782,-1.0107 -0.73635,0.0703 -0.449205,0.76044 -0.62621,0.8491 -1.433534,0.71809 -0.50658,-0.0822 -1.185148,-0.41356 -1.507934,-0.73635 -0.471796,-0.47179 -0.899704,-0.57932 -2.182151,-0.54836 -0.877398,0.0212 -1.944721,-0.0992 -2.371828,-0.26743 -0.427108,-0.16827 -0.866324,-0.29253 -0.976036,-0.27614 -0.109712,0.0164 -0.262222,0.008 -0.338911,-0.0193 -0.07669,-0.027 -1.896298,-0.0732 -4.043577,-0.10274 -3.173801,-0.0436 -4.099772,-0.15092 -4.949896,-0.57348 -0.575164,-0.28588 -1.045753,-0.67836 -1.045753,-0.87217 0,-0.19381 -0.188235,-0.5086 -0.418301,-0.69954 -0.230065,-0.19094 -0.418301,-0.50527 -0.418301,-0.69851 0,-0.19324 -0.470589,-0.85738 -1.045753,-1.47587 -2.077458,-2.23394 -3.137258,-3.43063 -3.137258,-3.54248 0,-0.0627 -0.282353,-0.40924 -0.627451,-0.77009 -1.663177,-1.73906 -3.092826,-3.47981 -3.375489,-4.11001 -0.171986,-0.38344 -0.460207,-0.82266 -0.640492,-0.97604 -0.409603,-0.34845 -4.559192,-5.6864 -4.559192,-5.86483 0,-0.18402 -0.80857,-1.08051 -1.938142,-2.14891 -1.529389,-1.44656 -2.506993,-2.49053 -3.598519,-3.84282 -1.527231,-1.89208 -6.362334,-6.13037 -6.993614,-6.13037 -0.163693,0 -0.297898,-0.0941 -0.298232,-0.20915 -2.79e-4,-0.11503 -0.562281,-0.58562 -1.248771,-1.04575 -0.686491,-0.46013 -1.250924,-0.93072 -1.254298,-1.04575 -0.0034,-0.11504 -0.193303,-0.20916 -0.422069,-0.20916 -0.228766,0 -0.572676,-0.25098 -0.764247,-0.55773 -0.191571,-0.30675 -0.452379,-0.55773 -0.57957,-0.55773 -0.492405,0 -2.702122,-1.72133 -2.702122,-2.10491 0,-0.22269 -0.174964,-0.4049 -0.38881,-0.4049 -0.213845,0 -0.791822,-0.37647 -1.284394,-0.8366 -0.492573,-0.46013 -0.987219,-0.83661 -1.099215,-0.83661 -0.111996,0 -0.654249,-0.50196 -1.205007,-1.11547 -0.550758,-0.6135 -1.134615,-1.11546 -1.297462,-1.11546 -0.324567,0 -1.204032,-0.6635 -2.033025,-1.53378 -0.292202,-0.30675 -0.919812,-0.95196 -1.394688,-1.4338 -0.688948,-0.69905 -0.868959,-1.12568 -0.890868,-2.11134 -0.01852,-0.83315 0.131412,-1.39417 0.460562,-1.72337 0.26841,-0.26846 0.488018,-0.64014 0.488018,-0.82595 0,-1.40197 8.326402,-9.10258 9.843451,-9.10365 0.322942,-2.3e-4 1.570923,-1.47459 1.5813,-1.86815 0.0049,-0.18381 0.305206,-0.65403 0.667469,-1.04491 0.426156,-0.45983 0.615159,-0.93825 0.535428,-1.35534 -0.165098,-0.86365 1.222423,-2.34682 2.311652,-2.47101 0.645115,-0.0735 0.919342,-0.32623 1.311549,-1.20847 0.893686,-2.01027 0.970124,-2.0844 3.462819,-3.35807 0.59592,-0.30449 0.918517,-0.69308 0.976036,-1.17569 0.102595,-0.86083 1.654094,-1.86113 3.099421,-1.99829 0.123659,-0.0117 0.474627,-0.58604 0.779934,-1.27624 0.407565,-0.92136 0.713142,-1.2549 1.149706,-1.2549 0.659017,0 2.446841,-1.78303 2.446841,-2.44028 0,-0.31584 0.204641,-0.37718 0.836602,-0.25079 0.460131,0.092 0.836602,0.0662 0.836602,-0.0575 0,-0.12363 0.291975,-0.38103 0.648833,-0.57202 0.356858,-0.19098 0.804198,-0.7769 0.994087,-1.30203 0.189889,-0.52513 0.525366,-0.95478 0.745504,-0.95478 0.220138,0 0.40025,-0.19926 0.40025,-0.44281 0,-0.36041 0.202896,-0.40853 1.090249,-0.25862 0.94461,0.15959 1.114756,0.10699 1.273696,-0.39378 0.100894,-0.3179 0.347539,-0.57799 0.548097,-0.57799 0.200556,0 0.436149,-0.3575 0.523538,-0.79444 0.09023,-0.45115 0.496925,-1.00947 0.941177,-1.29207 0.430259,-0.2737 1.097287,-0.826 1.482286,-1.22735 0.384996,-0.40135 1.254784,-1.10619 1.932861,-1.56632 0.678074,-0.46013 1.868961,-1.41513 2.646412,-2.12223 0.777452,-0.70709 1.978255,-1.57132 2.668452,-1.92051 1.84094,-0.93139 3.625276,-2.209314 3.625276,-2.596393 0,-0.443162 1.104814,-1.165055 1.812638,-1.184391 0.306754,-0.0084 1.373422,-0.107532 2.370372,-0.220339 0.996951,-0.11281 7.184634,-0.237698 13.750402,-0.277532 l 11.937766,-0.07242 0.07388,-7.236654 c 0.04064,-3.98016 0.02011,-7.682802 -0.04562,-8.228096 l -0.119503,-0.991444 -9.521773,0.08535 c -10.912477,0.09782 -23.031527,0.557434 -25.277781,0.958657 -0.843574,0.150678 -2.161223,0.319864 -2.928108,0.375966 -0.766885,0.0561 -2.457711,0.237082 -3.757395,0.402174 -5.311208,0.674662 -5.978869,0.417931 -6.270857,-2.411282 -0.107272,-1.039423 -0.439944,-3.332998 -0.739267,-5.096834 -0.299322,-1.763837 -0.680598,-5.026585 -0.847274,-7.250552 -0.166679,-2.223968 -0.343757,-4.482794 -0.393504,-5.019613 -0.286428,-3.090721 -0.378317,-15.726554 -0.116659,-16.041833 0.160962,-0.19395 0.26677,-0.459964 0.235124,-0.59114 -0.03165,-0.131177 0.04242,-0.844439 0.164596,-1.585027 0.169354,-1.026572 0.379486,-1.418216 0.884356,-1.648248 0.36422,-0.165952 0.66222,-0.543825 0.66222,-0.839717 0,-0.675437 0.996187,-1.516936 2.091506,-1.76674 0.460131,-0.104937 2.216996,-0.21183 3.904143,-0.237536 1.687148,-0.02571 5.326367,-0.25711 8.087155,-0.514232 2.760787,-0.257124 6.650987,-0.612047 8.644889,-0.788717 1.993901,-0.176674 4.064492,-0.364296 4.601311,-0.416935 0.53682,-0.05264 3.234862,-0.285756 5.995649,-0.51803 2.760787,-0.232277 5.333339,-0.486565 5.716782,-0.565085 0.838618,-0.171735 6.300794,-0.71063 8.159244,-0.804987 0.729846,-0.03706 1.455791,-0.196172 1.613209,-0.35359 0.166634,-0.166635 0.339345,-2.548265 0.41339,-5.700464 0.06995,-2.977838 0.141021,-5.916212 0.157941,-6.52972 0.0169,-0.613508 0.17003,-1.285716 0.34024,-1.493796 0.1702,-0.208079 0.43985,-0.598344 0.59921,-0.867255 0.15937,-0.268911 0.65615,-1.039842 1.10396,-1.713179 0.44782,-0.673338 1.13361,-1.709126 1.52398,-2.301752 0.39038,-0.592626 0.90242,-1.150254 1.13787,-1.239174 0.44055,-0.166379 3.10733,-1.99432 3.3562,-2.300503 0.33197,-0.40843 3.39351,-2.215073 3.75367,-2.215073 0.21803,0 0.46702,-0.114227 0.55331,-0.253838 0.27479,-0.444625 4.25133,-0.9446205 10.31037,-1.2963871 4.45007,-0.2583559 12.34083,0.541254 14.0285,1.4215771 0.42606,0.222244 0.96289,0.408844 1.19296,0.414667 0.23007,0.0058 0.65441,0.18936 0.94299,0.407861 0.28858,0.218501 1.18921,0.535228 2.0014,0.703837 0.81219,0.16861 2.01922,0.690874 2.68228,1.160588 1.45578,1.031266 3.94217,3.631795 4.36985,4.570455 0.17029,0.37374 0.45422,0.679527 0.63095,0.679527 0.21076,0 0.26748,0.331884 0.16481,0.964521 -0.0861,0.530487 -0.0291,1.816763 0.12654,2.858391 0.15568,1.041628 0.32089,2.646812 0.36714,3.567074 0.0463,0.920262 0.17755,2.623329 0.29176,3.784592 0.13734,1.396315 0.10311,2.306764 -0.10107,2.688274 -0.27827,0.519957 -0.22026,0.589875 0.58776,0.708466 0.49306,0.07237 1.27153,0.02401 1.72991,-0.107445 0.45839,-0.131464 1.07937,-0.160968 1.37995,-0.06556 0.30059,0.0954 2.87602,0.204204 5.72318,0.241781 2.84716,0.03758 7.12425,0.20912 9.50464,0.381204 2.38039,0.172083 6.08236,0.327925 8.22659,0.346319 l 3.8986,0.03344 2.5098,1.189121 c 1.3804,0.654014 3.07452,1.401817 3.76471,1.661777 0.6902,0.259963 1.51029,0.637005 1.82243,0.837874 0.31214,0.200868 1.44155,0.711814 2.5098,1.135436 1.06826,0.423622 2.56185,1.065851 3.3191,1.427176 0.75725,0.361323 1.48558,0.656953 1.61852,0.656953 0.13293,0 1.54582,0.627452 3.13975,1.394337 1.59393,0.766886 2.95881,1.394337 3.03306,1.394337 0.0743,0 0.92807,0.365289 1.89738,0.811755 0.96931,0.446464 2.45258,1.031255 3.29615,1.299536 0.84357,0.268279 1.86687,0.718678 2.27399,1.000883 0.40712,0.282206 0.90908,0.514614 1.11547,0.516463 0.20639,0.002 0.90387,0.305619 1.54997,0.675051 0.64609,0.369433 1.46178,0.758349 1.81264,0.864263 0.72802,0.219767 1.71565,0.643632 4.68149,2.009162 4.13575,1.904179 4.61621,2.15439 6.27019,3.265386 1.95542,1.313471 2.24029,1.499886 3.43222,2.245967 0.49006,0.306755 0.89182,0.766939 0.89279,1.022632 8.4e-4,0.255697 0.22752,1.008638 0.50343,1.673205 0.44867,1.080633 0.60973,3.956102 0.37564,6.706127 -0.0734,0.862347 -0.53434,1.015557 -8.19621,2.724323 -1.3413,0.299138 -3.1398,0.93396 -3.99668,1.410717 -0.85687,0.476755 -1.74088,0.796632 -1.96446,0.710836 -0.22358,-0.0858 -0.62116,-0.03694 -0.8835,0.108572 -0.8649,0.479716 -2.99273,1.355462 -3.76336,1.548879 -0.41647,0.104525 -0.75721,0.301933 -0.75721,0.438684 0,0.136748 -0.15686,0.250556 -0.34859,0.252905 -0.79978,0.0098 -1.11711,0.456793 -0.77632,1.093561 0.25095,0.468902 0.2497,0.704174 -0.005,1.0115 -0.50834,0.612507 -1.36258,0.481403 -1.64139,-0.251907 -0.20797,-0.547009 -0.39829,-0.631436 -1.17828,-0.5227 -0.51164,0.07133 -1.06559,0.236911 -1.231,0.367965 -0.16542,0.131057 -0.55491,0.277072 -0.86555,0.324476 -0.31063,0.04741 -0.87072,0.286648 -1.24464,0.53165 -0.37392,0.245001 -0.9256,0.492784 -1.22596,0.550626 -0.39164,0.07542 -0.554,0.345723 -0.574,0.955631 -0.0372,1.134335 -0.87509,2.070011 -1.8537,2.070011 -0.64989,0 -0.81055,-0.14476 -0.95341,-0.859096 -0.1224,-0.611966 -0.24058,-0.752351 -0.41084,-0.488018 -0.13146,0.204092 -0.16308,0.731851 -0.0703,1.172799 0.11084,0.526594 0.0389,0.884001 -0.20964,1.041483 -0.58885,0.373108 -1.63469,0.290299 -1.8008,-0.142587 -0.23422,-0.610354 -2.10675,-0.866274 -2.49122,-0.340475 -0.17316,0.236814 -0.65419,0.559589 -1.06895,0.71728 -0.59539,0.226368 -0.7871,0.200715 -0.9109,-0.121898 -0.22844,-0.59529 -3.27209,-0.368981 -3.39928,0.252749 -0.13606,0.665118 -1.45518,0.908756 -1.77978,0.328723 -0.17001,-0.303804 -0.45323,-0.409556 -0.80113,-0.299138 -0.45479,0.144344 -1.45515,0.316497 -2.27885,0.392168 -0.11504,0.01057 -0.20916,0.321169 -0.20916,0.690222 0,0.485779 -0.38508,0.947667 -1.39498,1.673204 -1.50716,1.082789 -2.59653,1.261942 -3.37724,0.555409 -0.59713,-0.540397 -1.13074,-0.56358 -3.99824,-0.173695 -1.51344,0.205776 -2.3856,0.211261 -2.74805,0.01729 -0.31735,-0.169839 -1.28335,-0.208607 -2.40106,-0.09636 -1.02855,0.103292 -2.86644,0.05724 -4.0842,-0.102331 -1.92734,-0.252559 -4.44545,-0.45312 -12.70191,-1.011675 l -1.84291,-0.124676 -0.32784,2.433174 c -0.47562,3.529995 -1.1433,11.09489 -1.14442,12.966397 -8.4e-4,1.410776 0.0765,1.639818 0.62648,1.855324 0.53862,0.21105 4.59171,0.648259 9.55121,1.030309 0.76689,0.0591 2.46101,0.22893 3.76471,0.37746 1.30371,0.14853 4.00175,0.41009 5.99565,0.58125 4.47917,0.38449 11.88738,1.28171 13.38564,1.62116 2.07259,0.46957 6.13326,1.74198 6.4,2.00543 0.14571,0.14391 0.53819,0.26165 0.87218,0.26165 0.89725,0 1.13351,0.45088 1.60746,3.06755 0.62104,3.42884 0.81851,5.3582 0.87049,8.50545 0.0253,1.53377 0.20769,5.54946 0.40522,8.92376 0.36862,6.29693 0.25089,18.0824 -0.24793,24.81919 -0.34229,4.62277 -1.04034,10.20356 -1.39195,11.12835 -0.16108,0.42367 -0.21443,0.89725 -0.11856,1.05238 0.0959,0.15513 0.0394,0.55244 -0.12548,0.88291 -0.16489,0.33048 -0.48768,1.79302 -0.71732,3.25011 -0.52547,3.33429 -1.56092,8.36916 -1.83741,8.93448 -0.11541,0.23596 -0.29717,0.94599 -0.40392,1.57784 -0.14021,0.82988 -0.61819,1.63981 -1.72168,2.91738 -0.84017,0.97272 -1.70952,1.80914 -1.93189,1.85873 -0.22237,0.0496 -0.40431,0.30674 -0.40431,0.57144 0,0.68997 -1.49605,1.14514 -3.9259,1.19446 -1.16968,0.0237 -2.33834,0.20533 -2.68739,0.41759 -0.3397,0.20657 -1.30608,0.37559 -2.1475,0.37559 -0.84142,0 -2.13211,0.11709 -2.8682,0.2602 -0.73609,0.14311 -2.59325,0.40701 -4.12702,0.58644 -1.53377,0.17943 -3.05906,0.45362 -3.38953,0.60929 -0.33048,0.15568 -0.72892,0.20392 -0.88542,0.10719 -0.15651,-0.0967 -0.57632,-0.054 -0.93291,0.0951 -0.3566,0.14901 -2.88615,0.38683 -5.62124,0.52849 -3.0298,0.15692 -5.09776,0.38245 -5.2925,0.57718 -0.40961,0.40961 -0.4395,1.47358 -0.57667,20.52158 -0.10521,14.61109 -0.1638,16.21755 -0.72515,19.88203 -0.39159,2.55628 -0.51625,4.10708 -0.34748,4.32244 0.59561,0.76001 0.60576,2.18947 0.0277,3.90348 -0.87912,2.6067 -1.72002,3.69474 -3.16906,4.10045 -1.14805,0.32143 -1.20455,0.38312 -0.95414,1.04174 0.5219,1.37271 -1.14052,2.10633 -1.74863,0.77168 -0.24487,-0.53741 -0.52729,-0.69717 -1.23247,-0.69717 -0.50315,0 -0.99237,0.12549 -1.08717,0.27887 -0.0948,0.15337 -0.44487,0.27886 -0.77795,0.27886 -0.33308,0 -1.26785,0.27449 -2.07726,0.60997 -1.19248,0.49426 -1.44035,0.70863 -1.30658,1.13007 0.19228,0.60584 -0.80291,1.71331 -1.75388,1.95177 -0.74446,0.18667 -1.31747,-0.40638 -1.12049,-1.15965 0.0998,-0.38156 0.0262,-0.4944 -0.25251,-0.38743 -0.24975,0.0958 -0.37034,0.49174 -0.3304,1.08475 0.0727,1.07907 0.0622,1.0936 -0.96056,1.33904 -0.65466,0.1571 -0.81277,0.0761 -1.04523,-0.53529 z m -1.94813,-8.88694 c 4.07346,-0.72042 4.27323,-0.77637 6.36077,-1.78139 3.66338,-1.76369 4.16583,-3.32222 4.78357,-14.83769 0.16044,-2.99085 0.35142,-6.31635 0.4244,-7.38999 0.073,-1.07364 0.14931,-7.28541 0.16963,-13.80393 l 0.0369,-11.85187 -0.93776,0.0303 c -3.46564,0.11182 -10.2869,0.49227 -12.51077,0.69777 -1.45708,0.13465 -4.90806,0.36238 -7.66885,0.50606 -2.76079,0.14369 -6.02354,0.34122 -7.25055,0.43895 l -2.23094,0.17771 -0.0134,6.60405 c -0.0548,27.10817 -0.15026,35.02052 -0.42634,35.35318 -0.16387,0.19744 -0.36929,1.30233 -0.45649,2.4553 -0.15238,2.01483 -0.13262,2.10736 0.50826,2.38043 0.79671,0.33947 5.38067,0.94144 7.40596,0.97255 0.79238,0.0122 1.51319,0.0946 1.60179,0.18312 0.36989,0.36958 7.91593,0.2701 10.20373,-0.13451 z M 87.368596,180.92486 c 5.102949,-0.56115 7.532119,-0.84431 13.149284,-1.5328 1.68714,-0.20679 5.00659,-0.52302 7.37655,-0.70273 2.36996,-0.17971 4.94251,-0.44647 5.71678,-0.5928 0.77427,-0.14633 4.16856,-0.50032 7.54285,-0.78663 3.3743,-0.28632 8.20568,-0.72916 10.7364,-0.98408 2.53072,-0.25492 5.22876,-0.5098 5.99565,-0.5664 0.76688,-0.0566 3.33943,-0.29174 5.71678,-0.52253 2.37734,-0.2308 5.64009,-0.49065 7.25055,-0.57744 6.16272,-0.33215 11.39901,-0.74844 14.0828,-1.11959 1.53377,-0.2121 4.79652,-0.52756 7.25056,-0.701 2.45403,-0.17345 4.71285,-0.36683 5.01961,-0.42974 0.81973,-0.16811 1.19897,-1.25641 1.53947,-4.41785 0.16726,-1.55292 0.39126,-3.38819 0.49779,-4.07839 0.10652,-0.6902 0.082,-2.43589 -0.0545,-3.87932 -0.17103,-1.80848 -0.15433,-2.77473 0.0537,-3.10788 0.20494,-0.32817 0.35677,-6.84311 0.47267,-20.28326 l 0.17076,-19.79981 -1.75826,-0.18442 c -0.96704,-0.10144 -2.57394,-0.36153 -3.57089,-0.57798 -2.2833,-0.49575 -6.9596,-1.13861 -11.29413,-1.55263 -1.84053,-0.1758 -3.48316,-0.42882 -3.65029,-0.56228 -0.16713,-0.13345 -1.42203,-0.26021 -2.78867,-0.28169 -1.36664,-0.0215 -2.61029,-0.12795 -2.76367,-0.2366 -0.15337,-0.10865 -2.03573,-0.35113 -4.18301,-0.53884 -2.14727,-0.18771 -5.47277,-0.59824 -7.38998,-0.91229 -3.8789,-0.63539 -5.3095,-0.79954 -12.96734,-1.48791 -2.91416,-0.26196 -5.54946,-0.58373 -5.85621,-0.71505 -0.30675,-0.13132 -3.10789,-0.37306 -6.22474,-0.53721 -3.11685,-0.16415 -6.56783,-0.40981 -7.66885,-0.54591 -2.87748,-0.35571 -10.176141,-0.5797 -22.701115,-0.69669 l -10.938906,-0.10218 -1.052392,0.8266 c -0.578817,0.45463 -1.488831,1.16486 -2.022257,1.57829 -1.481717,1.1484 -3.187468,2.66362 -3.436154,3.05235 -0.122654,0.19172 -0.405007,0.34858 -0.627452,0.34858 -0.222444,0 -0.404444,0.12943 -0.404444,0.28762 0,0.15819 -0.190346,0.36066 -0.422989,0.44994 -0.232645,0.0893 -1.196907,0.90102 -2.1428,1.80388 -0.945896,0.90286 -1.884965,1.64157 -2.086818,1.64157 -0.201852,0 -0.367006,0.15917 -0.367006,0.35371 0,0.19454 -0.301762,0.53964 -0.670581,0.76689 -1.704945,1.05049 -11.525098,10.60482 -13.714174,13.34294 -0.690941,0.86423 -1.721348,2.08281 -2.289791,2.70795 -0.568443,0.62514 -1.347259,1.56544 -1.730701,2.08956 -0.383443,0.52412 -1.293248,1.55587 -2.021789,2.29279 -0.728541,0.73691 -1.32462,1.43018 -1.32462,1.54059 0,0.11041 -0.564707,0.79007 -1.254903,1.51035 -0.690197,0.72028 -1.254904,1.41874 -1.254904,1.55214 0,0.13339 -0.372985,0.60854 -0.828855,1.05589 -0.45587,0.44735 -0.832341,0.95022 -0.836602,1.11749 -0.0043,0.16727 0.839313,1.23737 1.874608,2.37801 1.035295,1.14063 2.445686,2.76064 3.134202,3.60001 1.805535,2.20114 3.256535,3.73873 7.856391,8.32522 2.248742,2.24221 5.045531,5.26891 6.215084,6.72599 1.169553,1.45708 2.32936,2.89281 2.577346,3.19051 0.247988,0.2977 1.022813,1.29331 1.72183,2.21246 0.69902,0.91915 2.739443,3.14148 4.534275,4.93852 l 3.263329,3.26734 2.743126,0.18147 c 1.508717,0.0998 2.994104,0.22074 3.300859,0.26873 1.82056,0.28481 8.14906,0.0857 12.506519,-0.39346 z M 139.54037,97.751592 c 0.1932,-0.924577 0.44092,-4.077858 0.42603,-5.423143 -0.007,-0.643726 0.17902,-1.835884 0.41365,-2.64924 0.58961,-2.043858 0.9779,-7.581428 0.56085,-7.998477 -0.34953,-0.349532 -20.20874,-1.641572 -27.31626,-1.777194 l -3.62527,-0.06918 0.0805,1.673204 c 0.16993,3.529929 0.16243,12.860243 -0.0109,13.525069 -0.12032,0.461606 -0.0215,0.897719 0.2926,1.290718 0.49886,0.624253 1.01338,0.664106 21.52881,1.667535 1.76384,0.08627 3.25926,0.2089 3.32317,0.272506 0.0639,0.06361 1.03407,0.115649 2.15591,0.115649 1.8905,0 2.04931,-0.0459 2.17083,-0.627451 z m 60.11486,-20.56647 c 0,-0.153377 -0.12549,-0.278867 -0.27886,-0.278867 -0.15338,0 -0.27887,0.12549 -0.27887,0.278867 0,0.153377 0.12549,0.278867 0.27887,0.278867 0.15337,0 0.27886,-0.12549 0.27886,-0.278867 z m -25.55661,-4.068508 c 0.94239,-0.243777 1.83894,-0.542634 1.99232,-0.664123 0.15338,-0.121488 0.71808,-0.283064 1.2549,-0.359055 1.47296,-0.20851 4.07129,-0.977528 5.23727,-1.550057 0.57049,-0.280122 1.94705,-0.81115 3.05904,-1.180058 1.11198,-0.368905 2.02179,-0.767764 2.02179,-0.886346 0,-0.118586 0.36205,-0.21561 0.80458,-0.21561 0.44251,0 1.41506,-0.180973 2.16122,-0.402165 0.74615,-0.221192 2.36056,-0.656546 3.58758,-0.967453 2.4045,-0.609266 5.1513,-1.390257 8.56243,-2.434529 1.18166,-0.361752 2.39779,-0.657731 2.7025,-0.657731 0.30471,0 0.63157,-0.12549 0.72637,-0.278867 0.0948,-0.153377 0.48321,-0.278868 0.86315,-0.278868 0.37994,0 1.7843,-0.257634 3.1208,-0.57252 1.3365,-0.314883 3.24568,-0.765017 4.24263,-1.000294 0.99696,-0.235278 2.00088,-0.488841 2.23094,-0.563477 0.35599,-0.115485 -6.08415,-3.441056 -6.66379,-3.441056 -0.10974,0 -0.62063,-0.310675 -1.1353,-0.69039 -0.51468,-0.379714 -1.38612,-0.829953 -1.93654,-1.000528 -0.55042,-0.170578 -2.23031,-0.926571 -3.73309,-1.679984 -1.50278,-0.753413 -2.89918,-1.369844 -3.10311,-1.369844 -0.20393,0 -0.51728,-0.176509 -0.69632,-0.392244 -0.17904,-0.215734 -1.16696,-0.74039 -2.19537,-1.1659 -1.0284,-0.425509 -2.12081,-0.981019 -2.42757,-1.234467 -0.30675,-0.253449 -1.18518,-0.691268 -1.95207,-0.97293 -0.76688,-0.281664 -1.77081,-0.738705 -2.23094,-1.015649 -1.4511,-0.87339 -4.38024,-2.190495 -4.87149,-2.190495 -0.25954,0 -1.0265,-0.291915 -1.70435,-0.648701 -2.89597,-1.524303 -3.56318,-1.839105 -5.41545,-2.5551 -1.07364,-0.415016 -2.20306,-0.855604 -2.50981,-0.979084 -3.77804,-1.520803 -3.5683,-1.49766 -11.53031,-1.272302 -4.08797,0.115708 -7.91347,0.248636 -8.5011,0.295399 -0.58763,0.04676 -7.61509,0.166486 -15.61657,0.266059 -12.94582,0.161096 -20.48138,0.46688 -21.11212,0.856694 -0.33819,0.209014 -10.02245,0.796532 -18.25523,1.107497 -4.56848,0.172561 -7.836479,0.428115 -15.89544,1.243013 -1.533771,0.155089 -4.106322,0.411273 -5.716782,0.569299 -5.44481,0.534271 -11.013382,1.259613 -11.355379,1.479115 -0.187064,0.120064 -2.179182,0.460734 -4.426928,0.757047 -2.247744,0.296314 -4.328889,0.615586 -4.624765,0.709492 -0.515829,0.16372 -0.535986,0.488007 -0.49012,7.885762 0.0263,4.243263 0.165884,8.342474 0.31017,9.109359 0.144289,0.766885 0.382218,2.335514 0.528738,3.485842 0.14652,1.150328 0.358783,2.656212 0.471699,3.346409 l 0.205302,1.254903 2.091505,0.08901 c 1.150328,0.04895 3.973861,-0.09358 6.274517,-0.31674 2.300656,-0.223161 4.622227,-0.3967 5.159046,-0.38564 0.53682,0.01107 7.564278,-0.145717 15.616574,-0.348395 17.750403,-0.446779 43.482313,-0.215065 59.259323,0.533629 3.22092,0.152848 8.05229,0.359932 10.73639,0.460185 4.70857,0.17587 12.00905,0.530458 12.78765,0.621104 0.20793,0.02421 1.1491,-0.15544 2.09151,-0.399218 z M 115.29785,34.244511 c 8.29919,-0.465316 20.29744,-0.9418 22.08314,-0.87698 2.53207,0.09191 2.63077,-0.227193 2.19326,-7.091273 -0.29422,-4.615954 -0.45808,-4.865741 -3.64022,-5.549127 -1.22701,-0.26351 -3.04662,-0.620297 -4.04357,-0.792859 -2.45937,-0.425694 -15.12196,-0.440978 -15.64376,-0.01888 -0.21512,0.17401 -0.82621,0.409575 -1.358,0.523477 -0.53178,0.113902 -1.15924,0.296838 -1.39434,0.406525 -0.2351,0.109687 -1.00406,0.47731 -1.7088,0.81694 l -1.28135,0.61751 -0.18613,5.15252 c -0.11051,3.059046 -0.31593,5.360352 -0.50558,5.664044 -0.36742,0.588324 -0.1392,1.423922 0.38727,1.417957 0.19653,-0.0022 2.49067,-0.123661 5.09808,-0.269852 z"
       id="path50"
       inkscape:connector-curvature="0" />
  </g>
</svg>
