<?xml version="1.0" encoding="UTF-8" standalone="no"?>
<!-- Created with Inkscape (http://www.inkscape.org/) -->

<svg
   xmlns:dc="http://purl.org/dc/elements/1.1/"
   xmlns:cc="http://creativecommons.org/ns#"
   xmlns:rdf="http://www.w3.org/1999/02/22-rdf-syntax-ns#"
   xmlns:svg="http://www.w3.org/2000/svg"
   xmlns="http://www.w3.org/2000/svg"
   xmlns:xlink="http://www.w3.org/1999/xlink"
   xmlns:sodipodi="http://sodipodi.sourceforge.net/DTD/sodipodi-0.dtd"
   xmlns:inkscape="http://www.inkscape.org/namespaces/inkscape"
   width="256px"
   height="256px"
   viewBox="0 0 256 256"
   version="1.1"
   id="SVGRoot"
   inkscape:version="0.92.3 (2405546, 2018-03-11)"
   sodipodi:docname="play.svg">
  <sodipodi:namedview
     id="base"
     pagecolor="#ffffff"
     bordercolor="#666666"
     borderopacity="1.0"
     inkscape:pageopacity="0.0"
     inkscape:pageshadow="2"
     inkscape:zoom="4"
     inkscape:cx="106.42814"
     inkscape:cy="158.77095"
     inkscape:document-units="px"
     inkscape:current-layer="layer1"
     showgrid="false"
     inkscape:window-width="3840"
     inkscape:window-height="2104"
     inkscape:window-x="-16"
     inkscape:window-y="-16"
     inkscape:window-maximized="1"
     inkscape:grid-bbox="true" />
  <defs
     id="defs10" />
  <metadata
     id="metadata13">
    <rdf:RDF>
      <cc:Work
         rdf:about="">
        <dc:format>image/svg+xml</dc:format>
        <dc:type
           rdf:resource="http://purl.org/dc/dcmitype/StillImage" />
        <dc:title></dc:title>
      </cc:Work>
    </rdf:RDF>
  </metadata>
  <g
     id="layer1"
     inkscape:groupmode="layer"
     inkscape:label="Layer 1">
    <path
       style="fill:#000000"
       d="m 84.852814,53.76746 c 0.412479,0 0.824958,0 1.237437,0"
       id="path315"
       inkscape:connector-curvature="0" />
    <use
       id="use317"
       inkscape:spray-origin="#path315"
       xlink:href="#path315"
       x="0"
       y="0"
       width="100%"
       height="100%"
       transform="translate(8.9782948,-2.129133)" />
    <use
       id="use319"
       inkscape:spray-origin="#path315"
       xlink:href="#path315"
       x="0"
       y="0"
       width="100%"
       height="100%"
       transform="translate(4.3039741,3.0190468)" />
    <use
       id="use321"
       inkscape:spray-origin="#path315"
       xlink:href="#path315"
       x="0"
       y="0"
       width="100%"
       height="100%"
       transform="translate(3.8020675,3.2045239)" />
    <use
       id="use323"
       inkscape:spray-origin="#path315"
       xlink:href="#path315"
       x="0"
       y="0"
       width="100%"
       height="100%"
       transform="translate(-11.939308,3.4866138)" />
    <use
       id="use325"
       inkscape:spray-origin="#path315"
       xlink:href="#path315"
       x="0"
       y="0"
       width="100%"
       height="100%"
       transform="translate(-11.496469,-0.6778056)" />
    <use
       id="use327"
       inkscape:spray-origin="#path315"
       xlink:href="#path315"
       x="0"
       y="0"
       width="100%"
       height="100%"
       transform="translate(-11.890919,7.3999481)" />
    <use
       id="use329"
       inkscape:spray-origin="#path315"
       xlink:href="#path315"
       x="0"
       y="0"
       width="100%"
       height="100%"
       transform="translate(-4.6006674,3.6201426)" />
    <use
       id="use331"
       inkscape:spray-origin="#path315"
       xlink:href="#path315"
       x="0"
       y="0"
       width="100%"
       height="100%"
       transform="translate(-2.1424228,-1.7961695)" />
    <use
       id="use333"
       inkscape:spray-origin="#path315"
       xlink:href="#path315"
       x="0"
       y="0"
       width="100%"
       height="100%"
       transform="translate(1.5911482,-0.0229266)" />
    <use
       id="use335"
       inkscape:spray-origin="#path315"
       xlink:href="#path315"
       x="0"
       y="0"
       width="100%"
       height="100%"
       transform="translate(1.5015006,0.23034089)" />
    <use
       id="use337"
       inkscape:spray-origin="#path315"
       xlink:href="#path315"
       x="0"
       y="0"
       width="100%"
       height="100%"
       transform="translate(-4.9465357,3.556124)" />
    <use
       id="use339"
       inkscape:spray-origin="#path315"
       xlink:href="#path315"
       x="0"
       y="0"
       width="100%"
       height="100%"
       transform="translate(-7.8402694,6.6808775)" />
    <use
       id="use341"
       inkscape:spray-origin="#path315"
       xlink:href="#path315"
       x="0"
       y="0"
       width="100%"
       height="100%"
       transform="translate(4.1788132,8.3831245)" />
    <use
       id="use343"
       inkscape:spray-origin="#path315"
       xlink:href="#path315"
       x="0"
       y="0"
       width="100%"
       height="100%"
       transform="translate(-6.1533507,10.249742)" />
    <use
       id="use345"
       inkscape:spray-origin="#path315"
       xlink:href="#path315"
       x="0"
       y="0"
       width="100%"
       height="100%"
       transform="translate(-9.3528594,11.022247)" />
    <use
       id="use347"
       inkscape:spray-origin="#path315"
       xlink:href="#path315"
       x="0"
       y="0"
       width="100%"
       height="100%"
       transform="translate(-10.374503,9.2409668)" />
    <use
       id="use349"
       inkscape:spray-origin="#path315"
       xlink:href="#path315"
       x="0"
       y="0"
       width="100%"
       height="100%"
       transform="translate(-17.523061,10.676155)" />
    <use
       id="use351"
       inkscape:spray-origin="#path315"
       xlink:href="#path315"
       x="0"
       y="0"
       width="100%"
       height="100%"
       transform="translate(-17.331527,9.8717447)" />
    <use
       id="use353"
       inkscape:spray-origin="#path315"
       xlink:href="#path315"
       x="0"
       y="0"
       width="100%"
       height="100%"
       transform="translate(-11.959138,5.511222)" />
    <use
       id="use355"
       inkscape:spray-origin="#path315"
       xlink:href="#path315"
       x="0"
       y="0"
       width="100%"
       height="100%"
       transform="translate(-2.3765467,10.409676)" />
    <use
       id="use357"
       inkscape:spray-origin="#path315"
       xlink:href="#path315"
       x="0"
       y="0"
       width="100%"
       height="100%"
       transform="translate(3.3818499,9.4062096)" />
    <use
       id="use359"
       inkscape:spray-origin="#path315"
       xlink:href="#path315"
       x="0"
       y="0"
       width="100%"
       height="100%"
       transform="translate(6.1551854,8.1200488)" />
    <use
       id="use361"
       inkscape:spray-origin="#path315"
       xlink:href="#path315"
       x="0"
       y="0"
       width="100%"
       height="100%"
       transform="translate(2.887483,4.2782041)" />
    <use
       id="use363"
       inkscape:spray-origin="#path315"
       xlink:href="#path315"
       x="0"
       y="0"
       width="100%"
       height="100%"
       transform="translate(-1.7340875,4.6690441)" />
    <use
       id="use365"
       inkscape:spray-origin="#path315"
       xlink:href="#path315"
       x="0"
       y="0"
       width="100%"
       height="100%"
       transform="translate(-10.327009,10.37556)" />
    <use
       id="use367"
       inkscape:spray-origin="#path315"
       xlink:href="#path315"
       x="0"
       y="0"
       width="100%"
       height="100%"
       transform="translate(-19.019978,16.646194)" />
    <use
       id="use369"
       inkscape:spray-origin="#path315"
       xlink:href="#path315"
       x="0"
       y="0"
       width="100%"
       height="100%"
       transform="translate(-12.114975,18.840351)" />
    <use
       id="use371"
       inkscape:spray-origin="#path315"
       xlink:href="#path315"
       x="0"
       y="0"
       width="100%"
       height="100%"
       transform="translate(-14.181256,19.214318)" />
    <use
       id="use373"
       inkscape:spray-origin="#path315"
       xlink:href="#path315"
       x="0"
       y="0"
       width="100%"
       height="100%"
       transform="translate(-9.4593673,18.694653)" />
    <use
       id="use375"
       inkscape:spray-origin="#path315"
       xlink:href="#path315"
       x="0"
       y="0"
       width="100%"
       height="100%"
       transform="translate(-16.116435,23.252025)" />
    <use
       id="use377"
       inkscape:spray-origin="#path315"
       xlink:href="#path315"
       x="0"
       y="0"
       width="100%"
       height="100%"
       transform="translate(-10.893308,18.651154)" />
    <use
       id="use379"
       inkscape:spray-origin="#path315"
       xlink:href="#path315"
       x="0"
       y="0"
       width="100%"
       height="100%"
       transform="translate(-18.397116,18.200067)" />
    <use
       id="use381"
       inkscape:spray-origin="#path315"
       xlink:href="#path315"
       x="0"
       y="0"
       width="100%"
       height="100%"
       transform="translate(0.37208096,26.324646)" />
    <use
       id="use383"
       inkscape:spray-origin="#path315"
       xlink:href="#path315"
       x="0"
       y="0"
       width="100%"
       height="100%"
       transform="translate(-7.6072559,22.573941)" />
    <path
       id="path1451"
       style="fill:#ffffff;stroke-width:0.99171358"
       d="m 58.501953,39.003906 c -1.18884,0.0068 -2.287892,0.105577 -3.230469,0.306641 l -2.376953,0.507812 c -0.05321,0.03222 -0.09277,0.06772 -0.152343,0.09766 -0.10577,0.05315 -0.478922,0.235557 -0.767579,0.376953 -0.0033,0.0071 -0.0064,0.01427 -0.0098,0.02148 -0.04297,0.05016 -0.04413,0.03658 -0.0957,0.0625 -0.01005,0.0051 0.02042,-0.01673 0.03125,-0.01367 0.0071,0.002 -0.0088,0.012 -0.01367,0.01758 0.013,-0.0126 -0.0022,0.0064 -0.01172,0.01758 -0.02884,0.03518 -0.03571,0.04682 -0.07813,0.07031 0.05892,-0.03439 -0.02185,0.009 -0.03125,0.01563 -0.0082,0.0058 0.02068,-0.01695 0.0293,-0.01172 0.0071,0.0043 -0.01126,0.01216 -0.01758,0.01758 -0.06517,0.05613 -0.02127,0.0095 -0.05078,0.04297 -0.0052,0.006 -0.0085,0.01159 -0.01367,0.01758 -0.01548,0.01784 -0.03422,0.03417 -0.04883,0.05273 l 0.002,0.002 c -0.05589,0.04641 -0.0468,0.01974 -0.05469,0.04492 -0.0093,0.0063 -0.01943,0.0096 -0.02734,0.01758 -0.0015,0.0015 0.0045,0.0039 0.0039,0.0059 -0.0012,0.0034 -0.0037,0.0049 -0.0059,0.0078 2.62e-4,0.0015 -0.0036,0.0039 -0.0039,0.0059 -9.73e-4,0.0013 -0.0011,0.0026 -0.002,0.0039 -0.0068,0.022 -0.03294,0.05934 -0.03516,0.0625 -0.0074,0.0085 -0.01783,0.01431 -0.02539,0.02148 7.58e-4,0.04612 -0.02986,0.01728 -0.02344,0.05078 -0.0051,0.01791 -0.01058,0.02632 -0.01172,0.04297 -2.48e-4,0.0035 0.0019,0.0086 0,0.01172 -0.01527,0.0248 -0.03246,0.04622 -0.04883,0.07031 -5.63e-4,8.28e-4 -2.7e-5,0.0029 0,0.0039 -0.0035,0.0044 -0.0082,0.0093 -0.01172,0.01367 0.0024,-6.03e-4 0.0054,-0.0026 0.0078,-0.002 0.0016,3.66e-4 0.0023,0.0022 0.002,0.0039 -0.0018,0.01272 -0.0038,0.0249 -0.0078,0.03711 -0.0088,0.02697 -0.03448,0.04095 -0.04883,0.06445 0.0021,-10e-7 0.0061,-0.0021 0.0059,0 -0.0046,0.03738 -0.04387,0.0844 -0.06641,0.115234 4.2e-4,-2.6e-5 0.0089,-5.88e-4 0.0098,0.002 0.0045,0.01355 0.0098,0.0571 0.0078,0.06836 -0.0034,0.01982 -0.01167,0.03742 -0.01758,0.05664 -0.059,0.08456 0.02286,-0.03979 -0.0332,0.04687 l -0.251953,11.457031 c -0.165889,7.555889 0.334672,17.052317 1.240234,23.544922 1.720011,12.331959 1.9954,35.239829 0.544922,45.257809 -3.162595,21.84302 -4.261329,38.52648 -3.757812,57.08399 0.31593,11.64395 0.9752,20.0691 1.669921,21.36719 1.64033,3.06499 4.158808,2.67241 10.931641,-1.70508 4.90652,-3.17124 7.397937,-4.04894 14.164062,-4.98242 20.36488,-2.80962 21.764893,-3.20245 35.484378,-9.98438 26.7673,-13.23185 37.48664,-20.11771 44.3457,-28.48828 2.78979,-3.40457 4.65441,-4.60851 9.08594,-5.86133 6.38014,-1.80371 11.69858,-5.00882 17.67969,-10.6582 2.29384,-2.16662 6.30867,-5.10192 8.92382,-6.52149 l 4.75586,-2.58007 -0.0117,-6.20313 c -0.01,-5.67964 -0.26004,-6.40705 -2.9746,-8.625 -1.63052,-1.3322 -3.45707,-2.43743 -4.06055,-2.45703 -1.40991,-0.0458 -10.41353,-5.16765 -19.79492,-11.25977 -4.04557,-2.627115 -10.14875,-5.910376 -13.5625,-7.296871 -9.10215,-3.696828 -13.65716,-6.162521 -18.10743,-9.800781 -3.72633,-3.046404 -9.30069,-6.34411 -22.40234,-13.251954 C 107.81041,66.509809 87.280886,52.946422 73.638672,42.949219 70.495105,40.645569 63.653593,38.974363 58.501953,39.003906 Z m -7.087891,1.564453 c -0.003,0.0015 -0.0067,0.0024 -0.0098,0.0039 0.0052,0.0031 0.0089,0.0068 0.01367,0.0098 -8.54e-4,-0.0047 -0.0029,-0.0091 -0.0039,-0.01367 z m -0.125,0.291016 v 0.0039 c 0.0011,8.96e-4 0.0027,0.0012 0.0039,0.002 l 0.0078,-0.0059 c -0.0073,3.34e-4 -0.0084,6.6e-5 -0.01172,0 z m 0.0039,0.0059 -0.0039,0.002 v 0.04102 c 0.0026,-0.0067 -0.0021,-0.01016 0.0098,-0.03906 -0.0019,-0.0014 -0.0039,-0.0027 -0.0059,-0.0039 z m 15.580078,11.076172 c 5.041617,0.08021 11.612759,2.313955 16.367187,6.265625 2.61693,2.175077 6.137725,4.649298 7.824219,5.498047 1.686493,0.848748 6.373395,3.715628 10.414067,6.371094 4.04066,2.655466 11.80924,7.212188 17.26367,10.126953 5.45442,2.914765 12.60706,7.134348 15.89453,9.376953 3.28747,2.242607 9.53409,5.605841 13.88281,7.472656 4.34872,1.866815 9.69323,4.583866 11.875,6.039066 2.18177,1.45521 7.76023,4.58028 12.39649,6.94336 11.85414,6.04201 12.89062,7.11537 12.89062,13.34179 v 5.11328 l -5.03125,2.35743 c -2.7682,1.29656 -5.45091,3.13685 -5.96094,4.08984 -1.43828,2.68745 -10.82672,8.46329 -15.7832,9.71094 -3.03036,0.7628 -5.57664,2.33721 -7.93359,4.90429 -5.70214,6.21051 -13.52312,11.38672 -29.75196,19.69141 -18.3262,9.37795 -21.849959,10.59029 -36.593747,12.58398 -9.326908,1.26124 -12.117254,2.05024 -15.953125,4.51172 -5.248481,3.36794 -8.66418,3.80667 -9.714844,1.24805 -1.458071,-3.55075 -0.750861,-44.06021 1.023438,-58.63867 2.113844,-17.36832 2.202316,-33.704073 0.259766,-48.218751 -1.680093,-12.553581 -1.898217,-22.123384 -0.583985,-25.580078 0.773484,-2.034416 3.141862,-3.061722 6.228516,-3.195313 0.321526,-0.01392 0.65022,-0.01902 0.986328,-0.01367 z" />
  </g>
</svg>
