<?xml version="1.0" encoding="UTF-8" standalone="no"?>
<!-- Created with Inkscape (http://www.inkscape.org/) -->

<svg
   xmlns:dc="http://purl.org/dc/elements/1.1/"
   xmlns:cc="http://creativecommons.org/ns#"
   xmlns:rdf="http://www.w3.org/1999/02/22-rdf-syntax-ns#"
   xmlns:svg="http://www.w3.org/2000/svg"
   xmlns="http://www.w3.org/2000/svg"
   xmlns:sodipodi="http://sodipodi.sourceforge.net/DTD/sodipodi-0.dtd"
   xmlns:inkscape="http://www.inkscape.org/namespaces/inkscape"
   width="256px"
   height="256px"
   viewBox="0 0 256 256"
   version="1.1"
   id="SVGRoot"
   sodipodi:docname="power-on.svg"
   inkscape:version="0.92.3 (2405546, 2018-03-11)">
  <sodipodi:namedview
     id="base"
     pagecolor="#ffffff"
     bordercolor="#666666"
     borderopacity="1.0"
     inkscape:pageopacity="0.0"
     inkscape:pageshadow="2"
     inkscape:zoom="2"
     inkscape:cx="-11.32665"
     inkscape:cy="103.36686"
     inkscape:document-units="px"
     inkscape:current-layer="layer1"
     showgrid="false"
     inkscape:window-width="3840"
     inkscape:window-height="2104"
     inkscape:window-x="-16"
     inkscape:window-y="-16"
     inkscape:window-maximized="1"
     inkscape:grid-bbox="true" />
  <defs
     id="defs50" />
  <metadata
     id="metadata53">
    <rdf:RDF>
      <cc:Work
         rdf:about="">
        <dc:format>image/svg+xml</dc:format>
        <dc:type
           rdf:resource="http://purl.org/dc/dcmitype/StillImage" />
        <dc:title />
      </cc:Work>
    </rdf:RDF>
  </metadata>
  <g
     id="layer1"
     inkscape:groupmode="layer"
     inkscape:label="Layer 1">
    <path
       style="fill:#d40000;stroke-width:0.27777779"
       d="m 114.63749,214.46197 c -2.07855,-0.0973 -4.45975,-0.37476 -5.29154,-0.61657 -0.84936,-0.24691 -1.93658,-0.37081 -2.48004,-0.28262 -0.7818,0.12687 -1.29997,-0.0377 -2.69746,-0.85676 -0.95137,-0.55758 -3.13472,-1.63841 -4.851886,-2.40183 -1.717167,-0.76343 -3.55962,-1.68443 -4.094342,-2.04667 -0.534722,-0.36224 -1.965219,-0.98813 -3.17888,-1.39086 -1.213664,-0.40274 -2.526164,-0.90512 -2.916667,-1.11641 -0.390506,-0.21129 -1.397508,-0.59392 -2.237786,-0.85029 -0.886886,-0.27059 -1.935617,-0.85323 -2.5,-1.38891 -0.534722,-0.50753 -1.284722,-1.08916 -1.666667,-1.29251 -1.637114,-0.87161 -3.888889,-2.54891 -3.888889,-2.89676 0,-0.20753 -0.245658,-0.37734 -0.545908,-0.37734 -0.615808,0 -2.359233,-1.05244 -4.141381,-2.5 -2.261472,-1.83689 -2.812711,-2.46432 -2.812711,-3.20147 0,-0.49643 -0.105416,-0.65505 -0.339272,-0.51052 -0.538928,0.33308 -1.951419,0.12503 -2.495775,-0.36761 -0.629203,-0.56942 -0.623875,-0.68083 0.06809,-1.42357 0.522136,-0.56045 0.527355,-0.60794 0.06682,-0.60794 -0.274755,0 -0.655686,0.25 -0.846508,0.55556 -0.443194,0.70967 -0.954475,0.70472 -1.606303,-0.0155 -0.42183,-0.46612 -0.456319,-0.66799 -0.18763,-1.09823 0.208189,-0.33337 0.229186,-0.58895 0.05711,-0.6953 -0.14965,-0.0925 -0.272089,-0.40841 -0.272089,-0.70204 0,-0.35426 -0.257003,-0.5935 -0.763889,-0.7111 -1.375553,-0.31914 -2.037361,-0.89312 -1.857242,-1.61077 0.121564,-0.48435 -0.01881,-0.79233 -0.552391,-1.21206 -0.393453,-0.30949 -0.715367,-0.76585 -0.715367,-1.01413 0,-0.32519 -0.174781,-0.41157 -0.625,-0.30891 -0.82057,0.1871 -1.69657,-0.49223 -1.487053,-1.1532 0.225622,-0.71178 -3.438553,-4.62534 -4.094817,-4.37351 -0.328819,0.12618 -0.459797,0.0255 -0.459797,-0.35328 0,-0.29135 -0.15,-0.67972 -0.333333,-0.86305 -0.545625,-0.54563 0.750242,-0.41329 2.035997,0.20792 l 1.12027,0.54126 -0.478148,-0.74959 c -0.26298,-0.41228 -1.054389,-1.56209 -1.758689,-2.55515 -0.704297,-0.99305 -1.451405,-2.11805 -1.660241,-2.5 -1.11525,-2.03971 -3.646356,-8.66915 -4.931556,-12.91666 -0.369816,-1.22223 -1.09345,-3.47422 -1.608069,-5.00442 -1.018442,-3.0283 -1.468467,-6.60794 -2.38785,-18.99369 -0.399611,-5.38344 -0.380572,-5.79243 0.279397,-6.00189 0.464014,-0.14728 0.555556,-0.42029 0.555556,-1.6569 v -1.48058 l -0.902778,0.041 c -0.827003,0.0375 -0.902778,-0.029 -0.902778,-0.79237 0,-0.69533 0.122183,-0.84748 0.737775,-0.91871 0.903133,-0.10451 1.191339,-0.9374 1.075833,-3.10907 -0.04469,-0.84028 -0.09604,-1.99653 -0.1141,-2.56945 -0.02736,-0.86818 -0.131614,-1.04166 -0.625894,-1.04166 -0.757083,0 -1.550042,-1.19617 -1.437742,-2.1688 0.07321,-0.63407 0.21837,-0.74778 0.953986,-0.74729 1.064778,8.4e-4 0.958761,-0.62268 -0.127255,-0.74828 -0.636459,-0.0736 -0.752481,-0.23184 -0.826595,-1.1273 -0.07686,-0.9287 -0.01644,-1.04167 0.557192,-1.04167 0.903847,0 1.387311,-1.2044 1.157244,-2.88291 -0.162697,-1.187 -0.122305,-1.33005 0.41522,-1.47061 0.479792,-0.12547 0.595447,-0.36524 0.595447,-1.23443 0,-0.59329 0.125,-1.07871 0.277778,-1.07871 0.152778,0 0.277778,-0.1875 0.277778,-0.41667 0,-0.22917 -0.125,-0.41667 -0.277778,-0.41667 -0.152778,0 -0.277778,-0.37352 -0.277778,-0.83005 0,-0.75359 0.102345,-0.84641 1.111111,-1.00772 0.611111,-0.0977 1.111111,-0.20714 1.111111,-0.24315 0,-0.60698 0.663,-3.210628 1.013798,-3.981251 0.821213,-1.804027 3.455494,-6.390422 3.866266,-6.73133 0.218742,-0.181542 0.397714,-0.4262 0.397714,-0.543686 0,-0.176261 3.171753,-5.0253 5.178922,-7.917636 0.506198,-0.729431 2.853692,-3.637964 4.25065,-5.266536 0.668823,-0.779714 4.330323,-4.64352 5.848206,-6.171337 0.686942,-0.691436 2.226089,-2.045991 4.798864,-4.223333 1.591233,-1.346661 3.679947,-2.806189 4.015905,-2.806189 0.133348,0 0.735828,-0.359411 1.338842,-0.798691 0.603014,-0.439284 2.033889,-1.200512 3.179722,-1.691623 1.145834,-0.491108 2.598936,-1.135272 3.22912,-1.431475 2.414036,-1.134664 10.38448,-3.206627 13.298658,-3.457069 1.688862,-0.145136 2.375992,-0.331086 2.862882,-0.774745 1.60813,-1.465336 4.372,-0.200169 4.29394,1.965564 -0.0208,0.577034 -0.17008,3.79915 -0.33173,7.160261 -0.21446,4.459028 -0.209,6.923328 0.0202,9.115531 0.5535,5.294539 0.0311,8.853286 -1.41322,9.626236 -0.29393,0.157306 -1.08983,0.286011 -1.76866,0.286011 -0.8093,0 -1.36551,0.158178 -1.61549,0.459414 -0.20968,0.252681 -1.1837,0.819472 -2.164503,1.259542 -1.78955,0.802941 -2.227622,0.753683 -2.240258,-0.251906 -0.0022,-0.186175 -0.191753,-0.266553 -0.42092,-0.178614 -0.229167,0.08794 -0.416667,0.442773 -0.416667,0.788517 0,0.511014 -0.241677,0.696289 -1.29175,0.990292 -0.920611,0.257755 -1.716977,0.786894 -2.771741,1.841655 -0.813992,0.813995 -1.603306,1.479989 -1.754031,1.479989 -0.150722,0 -0.393203,0.222653 -0.538841,0.494783 -0.145639,0.272131 -0.712539,0.670462 -1.259773,0.885178 -0.547236,0.21472 -0.994975,0.560945 -0.994975,0.769392 0,0.208447 -0.41145,0.550911 -0.914333,0.761028 -0.502883,0.210119 -1.086506,0.703741 -1.296939,1.096939 -0.210422,0.393197 -0.548972,0.714902 -0.752322,0.714902 -0.20335,0 -0.369728,0.116578 -0.369728,0.259059 0,0.142483 -0.23103,0.332386 -0.5134,0.422005 -0.282372,0.08962 -0.654692,0.473045 -0.827378,0.852053 -0.172689,0.379008 -0.504158,0.689106 -0.7366,0.689106 -0.232441,0 -0.422622,0.125 -0.422622,0.277777 0,0.152778 -0.141492,0.277778 -0.314422,0.277778 -0.172933,0 -0.731386,0.442108 -1.241008,0.982464 -0.757284,0.802956 -0.896639,1.132195 -0.762692,1.801935 0.136508,0.68253 0.05378,0.86287 -0.495103,1.07927 -0.507375,0.20002 -0.756017,0.14817 -1.080678,-0.22536 -0.395516,-0.45506 -0.471969,-0.42754 -1.232019,0.44339 -0.445683,0.5107 -0.961533,1.3325 -1.146331,1.8262 -0.184797,0.49371 -0.611216,1.58516 -0.947597,2.42543 -0.336383,0.84028 -0.717969,1.96528 -0.847972,2.5 -0.130003,0.53473 -0.50185,1.97223 -0.826325,3.19445 -0.589153,2.2192 -0.919522,4.11011 -1.358895,7.77778 -0.128113,1.06944 -0.427697,3.06944 -0.665738,4.44444 -0.619812,3.58022 -1.025992,7.28543 -1.023567,9.33704 0.0031,2.62809 0.424822,4.78865 1.797853,9.21092 1.592958,5.13062 2.934861,8.13699 5.97425,13.38455 0.969577,1.674 1.927158,3.3603 2.127961,3.74735 0.200803,0.38704 0.585311,0.70491 0.854461,0.70637 0.316233,0.002 0.607439,0.3622 0.823092,1.01889 0.406661,1.23833 1.776927,2.6995 2.474938,2.63913 0.365503,-0.0316 0.6166,0.27005 0.879584,1.05671 0.467116,1.39729 1.502133,2.75937 2.581128,3.39675 0.462461,0.27318 0.911744,0.7792 0.998405,1.12449 0.08666,0.34529 0.265286,0.6278 0.396939,0.6278 0.131653,0 0.524353,0.49904 0.872664,1.10897 0.348311,0.60994 0.800403,1.10994 1.004644,1.11111 0.204245,0.001 0.5129,0.37714 0.6859,0.83548 0.173003,0.45833 0.414861,0.83333 0.537467,0.83333 0.122603,0 0.889331,0.65625 1.703839,1.45833 0.814508,0.80209 2.405542,1.94914 3.535628,2.54901 6.151135,3.26514 10.042005,5.14598 10.989425,5.31229 0.58591,0.10285 2.69028,0.62249 4.67639,1.15476 7.76921,2.08212 7.54259,2.0429 11.80556,2.0429 4.26296,0 4.03635,0.0392 11.80555,-2.0429 1.98612,-0.53227 4.09049,-1.05191 4.67639,-1.15476 0.98323,-0.17259 6.22906,-2.72115 10.87917,-5.28539 1.8011,-0.99318 5.37216,-3.34677 7.14077,-4.70628 0.41353,-0.31788 1.44584,-1.07796 2.29402,-1.68907 1.3348,-0.96173 3.75965,-3.65853 3.75965,-4.18131 0,-0.0976 0.23148,-0.50917 0.51441,-0.9147 0.28292,-0.40553 1.4011,-2.43983 2.48484,-4.52068 1.08374,-2.08084 2.68746,-5.01834 3.56383,-6.52778 2.84302,-4.89674 4.23723,-8.04023 5.80364,-13.08535 1.37303,-4.42227 1.79475,-6.58283 1.79785,-9.21092 0.002,-2.05161 -0.40375,-5.75682 -1.02356,-9.33704 -0.23804,-1.375 -0.53763,-3.375 -0.66574,-4.44444 -0.43937,-3.66767 -0.76974,-5.55858 -1.3589,-7.77778 -0.32447,-1.22222 -0.69632,-2.65972 -0.82632,-3.19445 -0.13,-0.53472 -0.48684,-1.59722 -0.79296,-2.36111 -0.30613,-0.76389 -0.70712,-1.82639 -0.89109,-2.36111 -0.41763,-1.21388 -1.44995,-3.42566 -1.68544,-3.61111 -0.097,-0.0764 -0.38368,-0.54351 -0.63706,-1.038052 -0.97127,-1.895702 -4.75257,-5.730552 -5.46646,-5.543866 -0.25766,0.06738 -1.00321,-0.236623 -1.65678,-0.675564 -0.65356,-0.438939 -1.29261,-0.798072 -1.42011,-0.798072 -0.3224,0 -3.13596,-1.734281 -3.2494,-2.002937 -0.0509,-0.120608 -0.21913,-0.219286 -0.37379,-0.219286 -0.15466,0 -0.61299,-0.228175 -1.01852,-0.507055 -0.40553,-0.278884 -1.17482,-0.672967 -1.70955,-0.875742 -2.13584,-0.809947 -8.22829,-3.712717 -8.75,-4.168964 -0.30555,-0.267219 -1.04883,-0.561011 -1.65173,-0.652872 -2.27855,-0.347172 -3.0417,-2.263222 -2.66679,-6.695517 0.11708,-1.384083 0.18628,-3.704016 0.15378,-5.155405 -0.29606,-13.223681 -0.2787,-14.109317 0.28882,-14.739267 0.9243,-1.025964 1.68676,-1.149889 4.97818,-0.809114 3.80738,0.394197 11.53252,2.34505 14.14085,3.571036 0.63018,0.296203 2.08328,0.940367 3.22912,1.431475 1.14583,0.491111 2.5767,1.252339 3.17972,1.691623 0.60301,0.43928 1.20549,0.798691 1.33884,0.798691 0.33596,0 2.42467,1.459528 4.01591,2.806189 2.57277,2.177342 4.11192,3.531897 4.79886,4.223333 2.28746,2.302428 5.26069,5.464825 5.90567,6.281412 0.69157,0.875563 0.80736,0.923783 1.48114,0.616788 0.99423,-0.453002 1.61037,0.04472 1.39408,1.126164 -0.11115,0.555748 -0.0448,0.779448 0.23118,0.779448 0.21288,0 0.64679,0.420255 0.96424,0.9339 0.44545,0.720744 0.72346,0.905936 1.21807,0.811386 0.48917,-0.09351 0.72203,0.05557 0.98366,0.629775 0.18851,0.413758 0.27998,0.815069 0.20324,0.891802 -0.24736,0.247359 0.40272,1.177581 0.82294,1.177581 0.22379,0 0.40689,0.125475 0.40689,0.278836 0,0.153358 0.39987,0.247108 0.88861,0.208333 0.74807,-0.05935 0.93253,0.05103 1.16635,0.697987 0.2366,0.654638 0.18725,0.831869 -0.33305,1.196305 -0.33594,0.2353 -0.6108,0.617158 -0.6108,0.848575 0,0.369142 0.0536,0.367211 0.43651,-0.01575 0.60746,-0.607458 1.14665,-0.544911 1.62494,0.188492 0.51932,0.796311 0.38305,2.067886 -0.27301,2.547608 -0.48045,0.351317 -0.48242,0.409542 -0.0369,1.089497 0.25888,0.395092 0.47068,1.035248 0.47068,1.422567 0,0.387319 0.13138,0.704217 0.29196,0.704217 0.16057,0 0.46275,0.408789 0.67151,0.908416 0.54007,1.29257 1.41639,2.0371 1.91278,1.625128 0.50815,-0.421725 1.22283,-0.12855 1.45278,0.595953 0.17277,0.544364 -0.27132,1.119786 -1.06957,1.385867 -0.15102,0.05034 -0.009,0.63628 0.31717,1.312194 0.70269,1.454395 0.70875,1.499655 0.17337,1.294215 -0.22916,-0.0879 -0.41666,-0.11883 -0.41666,-0.0686 0,0.0502 0.50754,1.57752 1.12787,3.39406 1.3225,3.87271 1.60322,4.81355 1.93857,6.49724 1.68026,8.43591 1.73928,15.3625 0.26511,31.11111 -0.82584,8.82253 -0.90125,9.32061 -1.8289,12.07892 -0.51461,1.5302 -1.23825,3.78219 -1.60806,5.00442 -1.2908,4.26601 -3.8307,10.9142 -4.93474,12.91666 -0.55051,0.99851 -3.59205,5.27778 -3.75124,5.27778 -0.0737,0 -0.36822,-0.12534 -0.65446,-0.27853 -0.72498,-0.38799 -0.96784,0.11313 -0.5471,1.12888 0.26745,0.64568 0.26592,0.90406 -0.007,1.23323 -0.38772,0.46716 -1.38869,0.56709 -1.38869,0.13864 0,-0.6709 -0.48363,-0.17599 -0.96229,0.98474 -0.28635,0.69438 -0.65573,1.35063 -0.82084,1.45833 -0.16511,0.1077 -0.58321,0.75832 -0.9291,1.44582 -1.36169,2.70649 -2.54146,4.81388 -2.78371,4.97243 -0.13989,0.0916 -0.60278,0.72896 -1.02864,1.41646 -0.75342,1.21631 -3.05483,3.56373 -5.25706,5.36216 -0.59795,0.48831 -1.53545,1.26723 -2.08333,1.73093 -1.5309,1.29567 -3.28495,2.35135 -3.90685,2.35135 -0.30883,0 -0.56152,0.16981 -0.56152,0.37734 0,0.34785 -2.25177,2.02515 -3.88888,2.89676 -0.38195,0.20335 -1.13195,0.78498 -1.66667,1.29251 -0.56438,0.53568 -1.61312,1.11832 -2.5,1.38891 -0.84028,0.25637 -1.84728,0.639 -2.23779,0.85029 -0.3905,0.21129 -1.703,0.71368 -2.91666,1.11641 -1.21366,0.40273 -2.64416,1.02862 -3.17888,1.39086 -0.53473,0.36224 -2.37718,1.28324 -4.09435,2.04667 -1.71716,0.76342 -3.88011,1.83229 -4.80655,2.37526 -0.92643,0.54297 -1.89899,0.98722 -2.16124,0.98722 -0.26224,0 -1.35,0.24197 -2.41722,0.53771 -1.76993,0.49048 -2.80669,0.53318 -11.79998,0.48611 -5.42275,-0.0284 -11.56018,-0.13121 -13.63873,-0.22852 z M 115.5,109.94715 c -0.6875,-0.18935 -1.71474,-0.55492 -2.28274,-0.81238 -0.56802,-0.25746 -1.15269,-0.4681 -1.29929,-0.4681 -0.1466,0 -0.51242,-0.3126 -0.81295,-0.69466 -0.44583,-0.56677 -0.50307,-0.88638 -0.31095,-1.73611 0.1295,-0.5728 0.18071,-3.10396 0.11379,-5.62479 -0.0669,-2.520832 -0.20856,-7.895832 -0.31476,-11.944443 -0.30937,-11.794345 -0.23453,-25.091748 0.14193,-25.217231 0.3831,-0.127703 0.42834,-0.808905 0.0624,-0.940178 -0.14195,-0.05092 -0.28917,-1.280091 -0.32716,-2.73148 -0.0779,-2.977503 0.24287,-12.721353 0.46401,-14.093106 0.0797,-0.494266 0.0229,-1.369266 -0.12611,-1.944444 -0.58538,-2.259103 -0.66472,-4.121803 -0.19556,-4.590964 0.2436,-0.243603 0.44292,-0.708328 0.44292,-1.032722 0,-0.324395 0.28003,-1.076381 0.62229,-1.671078 l 0.6223,-1.081267 h 2.07848 c 1.55993,0 2.1573,-0.1078 2.39444,-0.432097 0.40319,-0.5514 1.06754,-0.551808 1.61835,-0.0011 0.50582,0.505817 2.91102,0.346114 3.25865,-0.21637 0.16116,-0.260752 0.56473,-0.219 1.73802,0.179814 1.17532,0.399503 1.90014,0.474159 3.13946,0.323364 0.88624,-0.107836 1.73634,-0.187741 1.88912,-0.177569 1.22884,0.08181 2.69753,0.26173 3.40518,0.417155 0.48587,0.106717 0.92226,0.06515 1.02274,-0.09743 0.1178,-0.190619 0.39962,-0.181336 0.85977,0.02832 0.51353,0.233977 0.86754,0.228505 1.41712,-0.02189 0.62167,-0.283253 0.8019,-0.258459 1.19028,0.163744 0.86649,0.941953 1.41046,1.872372 1.41046,2.412475 0,0.297725 0.20533,0.7682 0.45628,1.0455 0.39304,0.4343 0.41794,0.783828 0.17967,2.521872 -0.15213,1.109731 -0.22113,4.142692 -0.15335,6.739914 0.0678,2.597222 0.12762,11.097222 0.13294,18.888889 0.009,12.755878 -0.0729,18.593814 -0.46784,33.472222 -0.0669,2.52083 -0.0157,5.05199 0.11379,5.62479 0.19212,0.84973 0.13487,1.16934 -0.31095,1.73611 -0.30053,0.38206 -0.68538,0.69465 -0.85522,0.69465 -0.16984,0 -0.81702,0.23597 -1.43817,0.52436 -2.05391,0.95362 -3.68241,1.19126 -6.52683,0.95242 -3.20137,-0.2688 -5.3211,-0.27681 -9.18587,-0.0347 -1.99213,0.12479 -3.3129,0.0736 -4.16667,-0.16157 z"
       id="path90"
       inkscape:connector-curvature="0" />
  </g>
</svg>
