<?xml version="1.0" encoding="UTF-8" standalone="no"?>
<!-- Created with Inkscape (http://www.inkscape.org/) -->

<svg
   xmlns:dc="http://purl.org/dc/elements/1.1/"
   xmlns:cc="http://creativecommons.org/ns#"
   xmlns:rdf="http://www.w3.org/1999/02/22-rdf-syntax-ns#"
   xmlns:svg="http://www.w3.org/2000/svg"
   xmlns="http://www.w3.org/2000/svg"
   xmlns:sodipodi="http://sodipodi.sourceforge.net/DTD/sodipodi-0.dtd"
   xmlns:inkscape="http://www.inkscape.org/namespaces/inkscape"
   width="256px"
   height="256px"
   viewBox="0 0 256 256"
   version="1.1"
   id="SVGRoot"
   inkscape:version="0.92.3 (2405546, 2018-03-11)"
   sodipodi:docname="works.svg">
  <sodipodi:namedview
     id="base"
     pagecolor="#ffffff"
     bordercolor="#666666"
     borderopacity="1.0"
     inkscape:pageopacity="0.0"
     inkscape:pageshadow="2"
     inkscape:zoom="2.8284271"
     inkscape:cx="164.38207"
     inkscape:cy="128.66356"
     inkscape:document-units="px"
     inkscape:current-layer="layer1"
     showgrid="false"
     inkscape:window-width="3840"
     inkscape:window-height="2104"
     inkscape:window-x="-16"
     inkscape:window-y="-16"
     inkscape:window-maximized="1"
     inkscape:grid-bbox="true" />
  <defs
     id="defs10" />
  <metadata
     id="metadata13">
    <rdf:RDF>
      <cc:Work
         rdf:about="">
        <dc:format>image/svg+xml</dc:format>
        <dc:type
           rdf:resource="http://purl.org/dc/dcmitype/StillImage" />
        <dc:title></dc:title>
      </cc:Work>
    </rdf:RDF>
  </metadata>
  <g
     id="layer1"
     inkscape:groupmode="layer"
     inkscape:label="Layer 1">
    <path
       style="fill:#ffffff;stroke-width:0.27666667"
       d="m 64.606937,246.78814 c -0.70131,-1.15321 -1.17155,-8.76512 -1.29126,-20.90226 -0.0948,-9.61166 -0.43053,-13.90867 -1.30574,-16.71295 l -0.33416,-1.07069 -2.08638,-0.17323 c -1.14751,-0.0953 -6.91132,-0.185 -12.80848,-0.19937 -10.0735,-0.0245 -10.76232,-0.0578 -11.38697,-0.54911 -0.36568,-0.28764 -1.03056,-0.52299 -1.47752,-0.52299 -1.30995,0 -1.63723,-0.65905 -1.85364,-3.73268 -0.10705,-1.52038 -0.29318,-2.88988 -0.41363,-3.04333 -0.33996,-0.43311 -0.60458,-2.20443 -0.84762,-5.67399 -0.44559,-6.36114 -1.69368,-16.81305 -2.75864,-23.10166 -1.07335,-6.3382 -1.39261,-10.41001 -1.39044,-17.7335 0.002,-6.92028 0.042,-7.54265 0.51885,-8.0925 0.33816,-0.3899 0.83892,-0.59567 1.44966,-0.59567 1.37659,0 8.97593,-1.63028 11.86692,-2.5458 0.53251,-0.16863 1.71526,-0.4081 2.62833,-0.53215 1.63771,-0.22249 3.81402,-0.53731 7.3318,-1.0606 0.98909,-0.14713 3.60359,-0.46217 5.81,-0.70009 6.00252,-0.64726 5.84794,-0.5936 5.95792,-2.06819 0.11342,-1.52068 0.60571,-4.3479 1.10975,-6.37317 0.60881,-2.44628 1.19478,-7.98869 1.08227,-10.23667 -0.0571,-1.14125 0.0101,-3.75575 0.14941,-5.81 0.13929,-2.05425 0.33427,-5.29125 0.43327,-7.19333 0.099,-1.90208 0.30642,-3.61396 0.46091,-3.80417 0.45567,-0.56102 2.44413,-0.42569 3.12354,0.21258 0.5576,0.52384 0.65664,0.5324 1.59978,0.13833 0.55296,-0.23104 1.31328,-0.42007 1.6896,-0.42007 0.37633,0 0.76117,-0.1245 0.85522,-0.27667 0.094,-0.15217 0.52979,-0.27667 0.96833,-0.27667 0.43854,0 0.8676,-0.11366 0.95346,-0.25259 0.0859,-0.13893 0.68458,-0.34127 1.33049,-0.44965 0.64591,-0.10838 1.48564,-0.32666 1.86605,-0.48506 0.38042,-0.1584 0.75392,-0.30918 0.83,-0.33507 0.0761,-0.0259 0.32509,-0.1236 0.55334,-0.21712 0.22825,-0.0935 0.71649,-0.20727 1.08499,-0.25277 0.3685,-0.0455 0.71644,-0.22394 0.77321,-0.39651 0.0568,-0.17259 -0.91089,-1.408401 -2.15034,-2.746258 -2.95993,-3.19493 -4.14554,-4.801335 -5.39879,-7.314965 -0.56901,-1.14125 -1.31724,-2.4485 -1.66274,-2.905 -1.2827,-1.694785 -4.25337,-7.93169 -5.22536,-10.970619 -0.55227,-1.72666 -1.17234,-3.512881 -1.37793,-3.969381 -0.57271,-1.271654 -1.5471,-7.462635 -1.58937,-10.098333 -0.0613,-3.823705 0.97877,-10.370626 1.86764,-11.755915 0.19612,-0.305664 0.54173,-1.240502 0.76801,-2.077418 0.22628,-0.836917 0.65151,-2.402366 0.94496,-3.478777 0.51009,-1.871107 1.17235,-3.337922 1.94006,-4.296937 0.19551,-0.244225 1.01791,-1.738225 1.82757,-3.32 2.70025,-5.275275 3.74372,-7.099812 4.59099,-8.027447 0.46223,-0.506086 0.8415,-1.048035 0.84282,-1.204331 0.003,-0.399085 2.88988,-3.201295 4.65656,-4.520527 0.8125,-0.606724 1.77817,-1.545941 2.14593,-2.087151 0.36776,-0.541209 1.25924,-1.384344 1.98106,-1.873633 0.72181,-0.48929 1.88992,-1.366222 2.59579,-1.948741 0.70587,-0.582517 1.3592,-1.059123 1.45186,-1.059123 0.0926,0 0.775,-0.43575 1.51631,-0.968333 0.74132,-0.532584 1.43957,-0.968334 1.55166,-0.968334 0.1121,0 0.6754,-0.3735 1.25177,-0.83 0.57638,-0.4565 1.19557,-0.83 1.37597,-0.83 0.18041,0 1.46975,-0.569569 2.86519,-1.26571 2.651773,-1.322877 4.462713,-2.042263 5.165513,-2.051968 0.22825,-0.0031 0.76263,-0.187059 1.18752,-0.408682 0.42488,-0.221624 1.23413,-0.478878 1.79833,-0.571677 1.38781,-0.2282672 5.1414,-1.4692093 6.82097,-2.2550256 1.31267,-0.6141564 1.63427,-0.6395982 7.885,-0.6237785 7.76049,0.019641 8.71704,0.1439268 10.14095,1.3176269 0.58665,0.4835677 1.33229,0.879214 1.65698,0.879214 0.32469,0 1.2612,0.3755355 2.08113,0.8345233 0.81993,0.4589879 2.00698,1.0715229 2.63789,1.3611899 0.63092,0.289666 1.36894,0.902195 1.64007,1.361174 0.27113,0.458979 0.77832,0.906129 1.12709,0.993666 0.34878,0.08754 1.13587,0.636446 1.7491,1.219798 0.9038,0.859766 1.11497,1.251411 1.11497,2.067933 0,0.811154 0.30771,1.390829 1.58028,2.976974 0.86916,1.083324 1.86835,2.0792 2.22043,2.213059 0.35207,0.133858 0.68451,0.400873 0.73876,0.593364 0.0542,0.192492 0.24903,0.910236 0.43287,1.594986 0.41082,1.530133 1.48734,3.791819 2.21585,4.655272 0.59992,0.711055 1.02089,0.599891 1.38835,-0.366627 0.30827,-0.810807 1.51192,-1.701308 4.23668,-3.134431 3.1441,-1.653689 7.37113,-2.752122 11.60621,-3.015983 1.67502,-0.10436 2.29708,-0.03598 2.8261,0.310644 0.37308,0.244452 0.9399,0.444458 1.25959,0.444458 0.8134,0 1.65154,0.496357 1.65154,0.978068 0,0.277813 0.30101,0.405266 0.95714,0.405266 0.68781,0 1.15491,0.213291 1.66,0.758006 0.38658,0.416903 0.70286,0.899659 0.70286,1.07279 0,0.173131 0.17175,0.457321 0.38166,0.631532 0.20991,0.174211 0.45289,0.672931 0.53996,1.108266 0.0871,0.435335 0.6312,1.33827 1.20918,2.006523 0.57798,0.668252 1.26167,1.709902 1.51932,2.314777 0.25765,0.604874 0.92124,2.158022 1.47463,3.451439 1.87616,4.38507 2.74466,7.518514 3.45078,12.45 0.75406,5.266309 1.10655,7.17237 1.53491,8.3 0.36671,0.965304 0.50154,2.457019 0.60016,6.64 0.07,2.96725 0.21037,5.482698 0.31202,5.589887 0.26257,0.276866 -0.10114,6.014822 -0.45349,7.154486 -0.55468,1.794067 -1.1525,3.995745 -1.54985,5.707847 -0.21878,0.942639 -0.58852,2.063139 -0.82166,2.49 -0.7565,1.385095 -0.96319,1.869702 -1.13049,2.650588 -0.0905,0.422296 -0.57913,1.231546 -1.08589,1.798333 -0.50676,0.566791 -1.06364,1.302085 -1.23752,1.633994 l -0.31615,0.603468 4.49538,0.139266 c 2.47246,0.07659 4.68214,0.169256 4.91039,0.205914 0.22825,0.03666 1.72225,-0.02678 3.32,-0.14097 2.76443,-0.197573 2.95134,-0.176303 3.86279,0.439535 0.56646,0.382738 1.04302,0.984673 1.16638,1.473236 0.11473,0.454345 0.40914,1.635333 0.65426,2.624416 0.24512,0.989083 0.56062,2.014518 0.70112,2.278746 0.14049,0.264227 0.25621,0.762227 0.25715,1.106666 8.3e-4,0.344439 0.18885,0.985104 0.41759,1.423694 0.22873,0.43859 0.49403,1.31009 0.58956,1.93666 0.0955,0.62658 0.27889,1.34478 0.40749,1.59601 0.1286,0.25123 0.31326,1.12273 0.41036,1.93667 0.0971,0.81394 0.34831,1.81607 0.55825,2.22698 0.20994,0.4109 0.38171,1.17479 0.38171,1.69754 0,0.52275 0.18599,1.30705 0.4133,1.7429 0.22731,0.43586 0.41406,0.99897 0.415,1.25137 8.3e-4,0.2524 0.43745,1.95837 0.97004,3.79103 0.53258,1.83266 0.96833,3.70144 0.96833,4.15283 0,0.4514 0.17429,1.17319 0.38732,1.60398 0.72653,1.46922 1.01172,2.80093 0.83564,3.9021 -0.11017,0.68893 -0.0614,1.17077 0.13057,1.2894 0.17019,0.10518 0.30647,0.94269 0.30647,1.88341 0,1.52225 0.77525,5.27466 1.38664,6.71168 0.12948,0.30433 0.31805,1.17583 0.41905,1.93666 0.101,0.76084 0.35854,1.80317 0.57231,2.31629 0.21377,0.51313 0.38867,1.23719 0.38867,1.60902 0,0.37184 0.13362,0.92574 0.29693,1.23089 0.45131,0.84329 1.0864,3.47194 1.0864,4.49666 0,0.50098 0.1854,1.52203 0.41201,2.26901 0.2266,0.74697 0.41335,1.77049 0.415,2.27448 0.003,0.84517 0.42998,2.56984 1.14368,4.61699 0.89625,2.57077 1.5454,5.09733 2.02588,7.885 0.1967,1.14125 0.55431,3.13325 0.79467,4.42666 0.24036,1.29342 0.49091,2.78742 0.55678,3.32 0.0659,0.53259 0.30729,1.71534 0.53651,2.62834 0.22921,0.913 0.57347,2.656 0.76502,3.87333 0.19155,1.21733 0.44221,2.33783 0.55702,2.49 0.11481,0.15217 0.36266,1.27267 0.55079,2.49 0.18813,1.21733 0.52839,2.89808 0.75615,3.735 0.22775,0.83692 0.47194,2.20642 0.54264,3.04333 0.0707,0.83692 0.22636,1.64617 0.34592,1.79834 0.11955,0.15216 0.30329,0.71241 0.4083,1.245 0.32976,1.67236 0.44039,1.90385 0.99378,2.07949 0.47048,0.14932 0.53918,0.43203 0.53918,2.21865 0,1.91651 -0.0454,2.0713 -0.7093,2.41916 -0.39011,0.2044 -0.85856,0.67104 -1.041,1.03699 -0.20459,0.41036 -0.70148,0.75444 -1.29654,0.89783 -0.53065,0.12787 -1.34716,0.34995 -1.81447,0.49351 -0.4673,0.14357 -1.54933,0.26103 -2.4045,0.26103 -0.85518,0 -1.63181,0.1245 -1.72585,0.27667 -0.094,0.15217 -0.44377,0.27631 -0.77717,0.27587 -0.33339,-5.5e-4 -1.38429,0.32949 -2.33533,0.73317 -1.23349,0.52357 -1.72917,0.88069 -1.72917,1.2458 0,0.75747 -0.99754,1.61849 -1.87511,1.61849 -0.42264,0 -1.01401,0.16818 -1.31416,0.37372 -0.73216,0.5014 -1.93402,0.80631 -3.49915,0.88775 -0.71138,0.037 -2.10211,0.39082 -3.09052,0.78625 -0.9884,0.39542 -2.04864,0.71895 -2.35609,0.71895 -0.30744,0 -0.6272,0.11039 -0.71059,0.2453 -0.0834,0.13492 -0.59494,0.32848 -1.1368,0.43013 -1.01975,0.19131 -2.45966,0.89089 -4.47958,2.17641 -0.64369,0.40966 -1.41176,0.74483 -1.70682,0.74483 -0.87782,0 -3.97607,0.85521 -4.86951,1.34413 -0.4565,0.24981 -1.18193,0.73432 -1.61207,1.0767 -0.43013,0.34237 -1.01416,0.6225 -1.29783,0.6225 -0.28368,0 -0.584,0.11039 -0.66739,0.2453 -0.0834,0.13492 -0.61985,0.33033 -1.19216,0.43426 -1.51092,0.27436 -3.39151,0.93326 -4.47328,1.5673 -1.18137,0.69242 -3.01778,1.34049 -3.81344,1.34578 -0.3334,0.002 -0.67825,0.12064 -0.76634,0.26317 -0.41679,0.67439 -5.55375,3.03037 -7.27248,3.3354 -2.09448,0.37172 -2.16533,0.39184 -2.60127,0.73901 -0.20556,0.1637 -0.86754,0.38681 -1.47107,0.4958 -0.60353,0.10899 -1.432,0.43647 -1.84104,0.72774 -0.40905,0.29127 -0.91747,0.52957 -1.12984,0.52957 -0.21237,0 -0.5044,0.10509 -0.64896,0.23353 -0.14456,0.12844 -0.97871,0.5164 -1.85367,0.86213 -1.10086,0.435 -1.59083,0.77946 -1.59083,1.1184 0,0.36665 -0.30571,0.53563 -1.21603,0.67214 -0.87553,0.13129 -1.25506,0.33159 -1.35541,0.71534 -0.0978,0.37392 -0.47983,0.58743 -1.2801,0.7154 -0.6274,0.10033 -1.20756,0.29056 -1.28925,0.42274 -0.0817,0.13218 -0.38686,0.24032 -0.67814,0.24032 -0.29128,0 -1.06206,0.23956 -1.71284,0.53235 -2.25178,1.01309 -3.67598,1.60966 -4.32035,1.80969 -0.35592,0.11048 -1.07448,0.67391 -1.5968,1.25205 -0.89762,0.99357 -1.03806,1.05033 -2.56295,1.03597 -1.07588,-0.0101 -1.83168,0.13778 -2.26893,0.44404 -0.36061,0.25258 -0.92396,0.45924 -1.25188,0.45924 -0.32793,0 -0.75997,0.19728 -0.96009,0.43842 -0.27371,0.32979 -0.64656,0.39602 -1.50491,0.2673 -0.62757,-0.0941 -2.31546,0.0196 -3.75085,0.25264 -1.43539,0.23306 -5.03755,0.61103 -8.0048,0.83993 -2.96725,0.22891 -5.83075,0.54303 -6.36334,0.69806 -1.19994,0.34929 -8.95465,1.89703 -11.205,2.23638 -0.913003,0.13768 -1.846753,0.32603 -2.075003,0.41856 -0.22825,0.0925 -1.2865,0.33584 -2.35166,0.54069 -1.06517,0.20484 -3.43067,0.6947 -5.25667,1.08857 -1.826,0.39386 -4.50275,0.8332 -5.94833,0.97631 -2.84003,0.28114 -4.79479,0.71541 -5.67167,1.26002 -1.30551,0.81083 -5.86846,1.49645 -9.95924,1.49645 h -4.02056 z m 10.6583,-11.88726 c 0.73028,-0.13933 2.63503,-0.39105 4.23278,-0.55938 1.59775,-0.16832 3.7765,-0.4273 4.84167,-0.5755 1.06517,-0.14819 4.67567,-0.53094 8.02333,-0.85054 3.34767,-0.31961 7.02042,-0.68626 8.161673,-0.81479 3.51479,-0.39583 11.63787,-1.07435 20.19666,-1.68703 2.51075,-0.17973 4.60197,-0.35447 4.64714,-0.3883 0.1339,-0.10029 -0.51481,-3.6926 -1.09725,-6.07613 -0.29746,-1.21733 -0.71356,-3.52058 -0.92465,-5.11833 -0.2111,-1.59775 -0.51675,-3.58975 -0.67924,-4.42667 -0.673,-3.46646 -0.83933,-4.67278 -0.83933,-6.08711 0,-3.51978 -1.70638,-19.58691 -2.21836,-20.88789 -0.19947,-0.50686 -0.86644,-4.22867 -1.23951,-6.91667 -0.28218,-2.03308 -0.6053,-3.8506 -1.18045,-6.64 -0.31376,-1.52166 -0.77332,-3.94941 -1.02125,-5.395 -0.24793,-1.44558 -0.56781,-2.99368 -0.71085,-3.44022 -0.14303,-0.44653 -0.45829,-2.12728 -0.70056,-3.735 -0.24228,-1.60771 -0.61268,-3.79461 -0.8231,-4.85978 -0.21043,-1.06516 -0.44804,-2.49691 -0.52802,-3.18166 -0.17968,-1.53818 -0.35844,-2.57996 -0.68837,-4.01167 -0.14026,-0.60867 -0.52537,-2.66292 -0.85579,-4.565 -0.33042,-1.90208 -0.70692,-3.70733 -0.83665,-4.01167 -0.47266,-1.10874 -1.09376,-3.21361 -1.09376,-3.70666 0,-0.27811 -0.24293,-1.48763 -0.53984,-2.68783 -0.76449,-3.09025 -1.32697,-6.04069 -1.55002,-8.13051 -0.10556,-0.98908 -0.30393,-2.09418 -0.44081,-2.45578 -0.13688,-0.36159 -0.43438,-2.10459 -0.66111,-3.87333 -0.41656,-3.24953 -0.51563,-3.86907 -0.97883,-6.12089 -0.55278,-2.68737 -0.8112,-4.37587 -0.98448,-6.4325 l -0.18064,-2.14416 h -1.23282 c -0.67805,0 -1.62514,0.17417 -2.10463,0.38706 -0.4795,0.21288 -2.241323,0.65768 -3.915153,0.98844 -1.67383,0.33077 -3.41683,0.70351 -3.87333,0.82833 -0.4565,0.12483 -2.075,0.49982 -3.59667,0.83332 -1.52166,0.33351 -3.07791,0.76751 -3.45833,0.96446 -0.38042,0.19695 -2.18567,0.82259 -4.01167,1.3903 -4.34338,1.35039 -8.06128,3.0751 -8.29241,3.8468 -0.096,0.32063 -0.27904,2.20145 -0.40669,4.17962 -0.20845,3.23014 -0.66185,6.4757 -1.06289,7.60833 -0.0808,0.22825 -0.11973,0.57986 -0.0865,0.78136 0.0333,0.2015 -0.0559,0.51275 -0.19816,0.69167 -0.32028,0.40286 -1.31048,10.18156 -1.08934,10.75784 0.0991,0.25823 0.70294,0.49022 1.57823,0.60633 0.77975,0.10344 1.75523,0.32583 2.16773,0.49419 0.4125,0.16838 1.07397,0.28049 1.46992,0.24915 0.90744,-0.0718 2.17464,0.96934 2.89046,2.3749 0.29679,0.58276 0.71698,1.19829 0.93376,1.36784 0.24714,0.1933 0.42201,0.94201 0.46886,2.0075 0.0411,0.93457 0.16114,1.83903 0.26675,2.00991 0.13084,0.2117 1.03923,0.26483 2.85113,0.16675 4.00125,-0.21659 7.27577,0.45784 10.58681,2.18049 0.40389,0.21014 1.25245,0.38207 1.88568,0.38207 1.56182,0 2.01217,0.28402 4.573303,2.88417 1.53344,1.55682 2.52437,2.86152 3.2259,4.24737 0.55691,1.10017 0.89929,1.93029 0.76083,1.84472 -0.13845,-0.0856 -0.25173,0.19575 -0.25173,0.62514 0,0.54428 0.18853,0.86344 0.6225,1.05383 0.4506,0.19769 0.64106,0.54051 0.68973,1.24144 0.10624,1.53006 0.23565,2.31424 0.46798,2.83583 0.11861,0.2663 0.11163,0.70205 -0.0155,0.96834 -0.12714,0.26629 -0.25056,2.66291 -0.27426,5.32583 -0.0483,5.42825 -0.28677,7.9021 -0.83932,8.70739 -0.20594,0.30015 -0.37566,0.9849 -0.37714,1.52167 -0.006,2.28775 -2.21715,5.26427 -3.91005,5.26427 -1.045693,0 -1.686343,0.34204 -3.448743,1.84123 -0.77724,0.66116 -1.59832,1.20211 -1.82462,1.20211 -0.22631,0 -0.61797,0.22819 -0.87038,0.5071 -0.25241,0.2789 -1.92133,0.97489 -3.70871,1.54665 -1.78739,0.57174 -3.45826,1.14797 -3.71304,1.2805 -0.25478,0.13253 -1.31303,0.38978 -2.35167,0.57165 -1.03863,0.18188 -2.05883,0.48606 -2.26711,0.67596 -0.54697,0.49871 -0.53167,4.48759 0.0218,5.69407 0.29308,0.63883 0.43761,1.88748 0.46264,3.99694 0.0332,2.79582 -0.0154,3.11476 -0.54775,3.59666 -0.44381,0.40176 -0.92617,0.51212 -2.00776,0.45938 -0.78299,-0.0382 -3.21639,-0.11559 -5.40757,-0.17202 l -3.98395,-0.10262 0.19972,5.15203 c 0.10985,2.83362 0.32293,8.32678 0.47351,12.20703 0.15059,3.88025 0.29724,7.70862 0.3259,8.5075 0.0495,1.38082 0.089,1.4525 0.79933,1.4525 0.41097,0 1.34472,-0.114 2.075,-0.25333 z m 62.437433,-9.12853 c 0.77936,-0.44285 1.97727,-0.94958 2.66202,-1.12605 1.38737,-0.35756 4.2581,-1.41962 5.94833,-2.20066 2.27766,-1.05248 9.89501,-3.56712 10.00012,-3.30124 0.0221,0.0558 0.27107,-0.0947 0.55333,-0.33441 0.28227,-0.23974 1.53292,-0.83068 2.77922,-1.31319 1.2463,-0.48251 2.84936,-1.18746 3.56235,-1.56655 0.71298,-0.3791 1.68528,-0.80383 2.16065,-0.94385 0.97733,-0.28786 6.45419,-2.16943 7.08933,-2.43553 0.22825,-0.0956 0.47725,-0.19538 0.55333,-0.22166 0.40858,-0.14115 1.31293,-0.49427 1.79834,-0.7022 1.86261,-0.79785 4.258,-1.64947 4.63954,-1.64947 0.24537,0 0.52308,-0.1245 0.61712,-0.27666 0.094,-0.15217 0.38775,-0.27667 0.65267,-0.27667 0.26491,0 0.62591,-0.14424 0.8022,-0.32054 0.3,-0.3 2.55312,-1.13459 6.66291,-2.46806 0.96494,-0.31309 2.14811,-0.79035 2.62925,-1.0606 0.48115,-0.27024 1.55915,-0.65824 2.39556,-0.86221 0.83641,-0.20397 1.832,-0.52047 2.21241,-0.70333 0.38042,-0.18286 1.50092,-0.55243 2.49,-0.82127 0.98909,-0.26884 1.98509,-0.63163 2.21334,-0.8062 0.49031,-0.37498 3.60356,-1.32346 5.94833,-1.8122 3.59432,-0.74919 5.43936,-1.41546 6.42756,-2.32108 l 0.98264,-0.90053 0.0138,-2.74616 c 0.0134,-2.66472 -0.27807,-5.36486 -1.07302,-9.93949 -0.21154,-1.21733 -0.58029,-3.83183 -0.81945,-5.81 -0.23915,-1.97816 -0.56461,-3.85642 -0.72323,-4.1739 -0.15861,-0.31747 -0.25862,-0.75322 -0.22223,-0.96833 0.0364,-0.2151 -0.0132,-0.57785 -0.11016,-0.8061 -0.097,-0.22825 -0.37313,-1.5355 -0.61367,-2.905 -0.92866,-5.28715 -1.75902,-9.21285 -2.48709,-11.75833 -0.63698,-2.22699 -1.44365,-5.60458 -2.3457,-9.82167 -0.53448,-2.49873 -0.87568,-3.86487 -1.10556,-4.42667 -0.2113,-0.51641 -0.36139,-1.28222 -1.12513,-5.74083 -0.16291,-0.95104 -0.53384,-2.66292 -0.8243,-3.80417 -0.29045,-1.14125 -0.71228,-2.822 -0.93741,-3.735 -0.22512,-0.913 -0.66344,-2.3952 -0.97404,-3.29378 -0.31059,-0.89857 -0.56472,-1.91835 -0.56472,-2.26617 0,-0.34782 -0.1245,-0.70934 -0.27666,-0.80338 -0.15217,-0.094 -0.27667,-0.39872 -0.27667,-0.67704 0,-0.52787 -1.22193,-5.00084 -1.62896,-5.96296 -0.12876,-0.30433 -0.51371,-1.48708 -0.85545,-2.62833 -0.34175,-1.14125 -0.91856,-2.73232 -1.28181,-3.5357 -0.36324,-0.80339 -0.66045,-1.53025 -0.66045,-1.61525 0,-0.085 -0.3735,-0.9615 -0.83,-1.94777 -0.4565,-0.98627 -0.83,-1.89612 -0.83,-2.02187 0,-0.12576 -0.456,-1.18887 -1.01334,-2.36247 l -1.01335,-2.13382 -14.96415,0.19434 c -8.23029,0.10688 -16.95616,0.30265 -19.39082,0.43504 -2.43467,0.13239 -8.09942,0.36944 -12.58834,0.52678 -18.75937,0.65752 -26.4739,1.06063 -29.78995,1.55659 l -0.87829,0.13137 0.13473,1.58221 c 0.0741,0.87022 0.30307,2.45371 0.50881,3.51888 0.20574,1.06517 0.51595,3.11942 0.68936,4.565 0.32714,2.72706 0.40813,3.26623 0.87274,5.81 0.15286,0.83692 0.38164,2.20642 0.5084,3.04333 0.12676,0.83692 0.30812,1.83292 0.40302,2.21334 0.0949,0.38041 0.48307,2.80816 0.8626,5.395 0.37954,2.58683 0.85968,5.38808 1.067,6.225 0.20731,0.83691 0.53058,2.57991 0.71839,3.87333 0.18779,1.29342 0.40897,2.53842 0.49151,2.76667 0.0825,0.22825 0.12184,0.64029 0.0874,0.91566 -0.0345,0.27536 0.0558,0.64886 0.20054,0.83 0.37669,0.47125 1.05753,3.90349 1.60202,8.076 0.25814,1.97817 0.5717,4.21917 0.69679,4.98 0.1251,0.76084 0.36526,2.50384 0.53369,3.87334 0.16844,1.3695 0.42138,2.70618 0.5621,2.97041 0.14073,0.26423 0.25586,1.038 0.25586,1.7195 0,0.6815 0.17339,1.77256 0.38532,2.42458 0.21192,0.65203 0.45339,2.11926 0.53659,3.26051 0.0832,1.14125 0.53231,3.98966 0.99802,6.32981 0.4657,2.34015 0.84674,4.58737 0.84674,4.99383 0,0.40646 0.10998,0.8573 0.24441,1.00186 0.13443,0.14455 0.39534,1.07208 0.5798,2.06116 0.18446,0.98909 0.45518,2.35859 0.6016,3.04334 0.14641,0.68475 0.38823,2.42775 0.53736,3.87333 0.14913,1.44558 0.51543,3.50777 0.81399,4.58265 0.29856,1.07487 0.54284,2.26385 0.54284,2.64217 0,0.37831 0.10441,0.80612 0.23202,0.95068 0.12762,0.14456 0.37936,1.13433 0.55943,2.1995 0.18007,1.06517 0.44373,2.49692 0.58591,3.18167 0.14218,0.68475 0.4662,2.3655 0.72004,3.735 0.25385,1.3695 0.6299,2.76136 0.83568,3.09302 0.36603,0.58994 0.8441,2.76128 0.71121,3.23027 -0.0369,0.13014 0.062,0.39207 0.21966,0.58207 0.15769,0.19001 0.53034,1.45302 0.82811,2.80672 0.50471,2.29442 1.67693,5.91958 1.91413,5.91958 0.0576,0 0.74244,-0.36233 1.52179,-0.80519 z m 33.92535,-81.89108 c -0.22825,-0.12802 -0.86925,-0.31426 -1.42443,-0.41385 -1.40182,-0.25147 -2.4489,-1.13568 -2.4489,-2.06796 0,-0.41502 0.14412,-0.89871 0.32027,-1.07486 0.22382,-0.22382 0.2337,-0.42795 0.0328,-0.67783 -0.1581,-0.19666 -0.35667,-1.41581 -0.44126,-2.70923 -0.0846,-1.29341 -0.29966,-3.65891 -0.47794,-5.25666 -0.17828,-1.59775 -0.36011,-3.58975 -0.40407,-4.42667 -0.10029,-1.90933 -0.66447,-8.31986 -0.87168,-9.90465 -0.17634,-1.34861 0.39274,-2.26868 1.4032,-2.26868 0.32023,0 0.73774,-0.249 0.92779,-0.55334 0.19006,-0.30433 0.62463,-0.55468 0.96572,-0.55632 0.74148,-0.004 2.68734,-0.58944 4.21682,-1.26959 0.60867,-0.27067 1.16892,-0.50858 1.245,-0.52869 0.0761,-0.0201 0.44959,-0.1689 0.83,-0.33066 1.52628,-0.649 4.6203,-1.47252 5.5182,-1.46875 0.96947,0.004 2.50514,1.1199 2.50514,1.82023 0,0.18115 0.19754,0.49331 0.43899,0.69369 0.30173,0.25042 0.40127,0.67189 0.31834,1.34805 -0.0663,0.54104 0.0586,1.5967 0.27766,2.3459 0.21906,0.7492 0.32449,1.73124 0.23427,2.18231 -0.11708,0.58541 -0.0324,0.91638 0.29596,1.15647 0.36545,0.26722 0.47012,0.87069 0.50926,2.93603 0.0271,1.42981 0.20625,3.51993 0.39812,4.6447 0.29435,1.72554 0.49174,2.17938 1.2635,2.905 0.88946,0.83628 0.91348,0.91786 0.87178,2.96182 -0.0431,2.11346 -0.39739,3.01648 -1.18343,3.01648 -0.20961,0 -0.38112,0.25167 -0.38112,0.55927 0,0.35281 -0.28086,0.67019 -0.76083,0.85976 -0.41846,0.16528 -0.97702,0.41161 -1.24125,0.54741 -0.26423,0.13579 -0.88566,0.24689 -1.38096,0.24689 -0.54377,0 -2.11443,0.6131 -3.96453,1.54755 -2.46448,1.24475 -3.12338,1.70488 -3.36751,2.35167 -0.23022,0.60993 -0.48113,0.80412 -1.03898,0.80412 -0.40451,0 -0.92221,0.18675 -1.15046,0.415 -0.45449,0.45448 -1.38525,0.53011 -2.03548,0.16539 z m 3.68402,-7.81863 c 0.33237,-0.17687 1.04006,-0.66225 1.57265,-1.07862 0.53258,-0.41638 1.24859,-0.84035 1.59112,-0.94217 0.34254,-0.10181 0.75155,-0.42568 0.90891,-0.71971 0.15735,-0.29403 0.44677,-0.5346 0.64314,-0.5346 0.19637,0 0.64542,-0.30696 0.99789,-0.68215 0.56846,-0.6051 0.62202,-0.86292 0.47417,-2.2825 -0.57979,-5.56672 -0.80308,-7.16315 -1.03454,-7.39651 -0.14338,-0.14456 -0.26069,-0.74306 -0.26069,-1.32999 0,-0.58693 -0.11732,-1.58916 -0.2607,-2.22717 -0.14339,-0.638 -0.33076,-1.49541 -0.41638,-1.90534 l -0.15568,-0.74533 -1.58946,0.85334 c -0.87419,0.46934 -1.91968,1.02567 -2.32329,1.2363 -0.40361,0.21062 -0.80505,0.56851 -0.89208,0.7953 -0.087,0.2268 -0.47081,0.5312 -0.85285,0.67645 l -0.69462,0.26409 0.14311,6.30259 c 0.1709,7.52638 0.30875,9.07486 0.85664,9.62276 0.49854,0.49854 0.52717,0.5006 1.29266,0.0933 z m -104.327623,63.49983 2.91581,-0.1784 0.20408,-2.24243 c 0.11225,-1.23334 0.17353,-6.41318 0.13618,-11.51076 -0.0983,-13.41244 -0.18428,-16.45805 -0.53917,-19.09 -0.1744,-1.29342 -0.2459,-2.74138 -0.15888,-3.21769 0.16571,-0.90702 -0.32476,-12.0799 -0.56494,-12.86946 -0.34894,-1.14708 -14.82432,-0.79952 -25.01948,0.60073 -2.20641,0.30304 -5.38116,0.72729 -7.055,0.94278 -3.23598,0.4166 -5.67405,0.91918 -6.02125,1.24121 -0.22927,0.21265 0.16261,6.8249 0.6162,10.39743 0.2496,1.96582 0.88135,7.76017 1.22166,11.205 0.0676,0.68475 0.25468,2.17875 0.41563,3.32 0.43593,3.091 1.2034,12.88605 1.49576,19.09 0.0541,1.14788 0.1342,1.27373 1.027,1.61339 1.49391,0.56835 24.91654,1.09039 31.3264,0.6982 z m -20.67473,-4.80159 c -0.0941,-0.15217 -0.72885,-0.27667 -1.41069,-0.27667 -0.69786,0 -1.71856,-0.2443 -2.33533,-0.55896 -0.89587,-0.45703 -1.09565,-0.70518 -1.09565,-1.36091 0,-0.44107 -0.17523,-1.15442 -0.38941,-1.58521 -1.52874,-3.07491 -2.19955,-6.61218 -2.79816,-14.75492 -0.0839,-1.14125 -0.26222,-2.63525 -0.39628,-3.32 -0.13406,-0.68475 -0.24518,-2.49 -0.24693,-4.01167 -0.002,-1.52166 -0.0841,-2.97548 -0.18308,-3.23071 -0.3111,-0.80249 -0.0219,-1.73871 0.6247,-2.02239 0.48275,-0.2118 0.6225,-0.50089 0.6225,-1.28776 0,-0.93615 0.11295,-1.0784 1.46005,-1.83865 0.80303,-0.45321 2.17036,-0.97147 3.03851,-1.15169 0.86815,-0.18023 1.65545,-0.45227 1.74955,-0.60453 0.0941,-0.15227 0.5876,-0.24096 1.09665,-0.19711 0.50906,0.0439 1.01523,-0.01 1.12484,-0.11954 0.28034,-0.28034 3.2741,-0.21165 5.08706,0.11673 0.83692,0.15159 1.89517,0.27295 2.35167,0.2697 1.29388,-0.009 3.39689,0.52856 3.75517,0.96026 0.17834,0.21488 0.61495,0.39069 0.97024,0.39069 0.57608,0 2.14457,1.5187 2.21444,2.14414 0.0128,0.11414 0.14875,0.51878 0.30223,0.8992 0.15347,0.38041 0.43249,2.18566 0.62004,4.01166 0.18756,1.826 0.44383,3.51641 0.5695,3.75646 0.39076,0.74645 0.072,8.3006 -0.40763,9.66001 -0.38947,1.10388 -0.38893,1.23983 0.006,1.46074 0.32567,0.18225 0.41997,0.62133 0.37455,1.74402 -0.0334,0.82524 -0.13278,1.50037 -0.22086,1.50027 -0.0881,-9e-5 -0.13496,1.44912 -0.10417,3.22048 0.0548,3.15368 0.0405,3.2371 -0.69077,4.01183 -0.41071,0.43516 -1.01696,0.79119 -1.34722,0.79119 -0.33025,0 -1.20215,0.25959 -1.93756,0.57688 -1.96302,0.84691 -11.9764,1.49795 -12.40377,0.80646 z m 8.33472,-8.04328 c 0.54249,-0.20003 0.59184,-0.43626 0.63684,-3.04843 0.0268,-1.55738 0.1638,-3.04651 0.30438,-3.30916 0.14057,-0.26266 0.27032,-0.83379 0.28832,-1.26918 0.0536,-1.29539 -0.55019,-7.33357 -0.8676,-8.67662 -0.16183,-0.68475 -0.37953,-1.73847 -0.48378,-2.3416 -0.16208,-0.93767 -0.32117,-1.13431 -1.09773,-1.35677 -1.03793,-0.29735 -6.56867,0.13623 -6.9796,0.54715 -0.61197,0.61198 -0.26343,11.206 0.5596,17.00912 0.44626,3.14655 0.32347,3.05814 3.95099,2.84473 1.70529,-0.10032 3.36515,-0.27998 3.68858,-0.39924 z m 26.94028,-1.77839 c 0.18943,-0.22825 0.69262,-0.415 1.1182,-0.415 1.14414,0 4.2106,-0.82851 4.71358,-1.27354 0.24024,-0.21256 0.55842,-0.38646 0.70709,-0.38646 0.14866,0 0.69217,-0.31125 1.2078,-0.69167 0.51562,-0.38041 1.20931,-0.69166 1.54154,-0.69166 0.33222,0 0.75902,-0.18675 0.94846,-0.415 0.18943,-0.22825 0.48833,-0.415 0.66422,-0.415 0.59125,0 1.27401,-3.15746 1.44052,-6.66176 0.33692,-7.09043 0.28962,-9.0015 -0.23725,-9.58444 -0.26629,-0.29464 -0.48416,-0.79047 -0.48416,-1.10184 0,-1.75727 -0.32616,-2.3025 -1.79227,-2.99608 -0.79353,-0.3754 -1.63341,-0.68255 -1.86638,-0.68255 -0.23298,0 -0.57859,-0.18675 -0.76802,-0.415 -0.18943,-0.22825 -0.67777,-0.415 -1.08521,-0.415 -0.40743,0 -0.85906,-0.10327 -1.00362,-0.22949 -0.38418,-0.33545 -3.481,-0.84006 -6.41867,-1.0459 l -2.55916,-0.17932 0.0185,0.65819 c 0.0102,0.362 0.20915,2.33894 0.44214,4.39319 0.23298,2.05425 0.47445,6.972 0.53659,10.92833 0.19202,12.22527 0.13947,11.56587 0.93941,11.78788 1.12134,0.31122 1.57143,0.2722 1.93666,-0.16788 z m 9.82167,-87.288329 c 1.06516,-0.295472 2.37583,-0.540848 2.9126,-0.545277 0.53677,-0.0044 1.22152,-0.180066 1.52167,-0.390299 0.656763,-0.460011 0.573743,-0.445085 2.551563,-0.458744 l 1.59083,-0.01098 -1.25487,-1.164849 c -0.69018,-0.640666 -1.54071,-1.631722 -1.89007,-2.202347 -0.34935,-0.570625 -0.74954,-1.0375 -0.889293,-1.0375 -0.13976,0 -0.25916,-0.155625 -0.26535,-0.345834 -0.006,-0.190208 -0.37968,-0.77688 -0.83,-1.303717 -0.45031,-0.526834 -0.81875,-1.067864 -0.81875,-1.202291 0,-0.134424 -0.25923,-0.60845 -0.57605,-1.053394 -1.05726,-1.48479 -3.20443,-6.163862 -3.98456,-8.683098 -0.4241,-1.3695 -0.86462,-2.6145 -0.97896,-2.766666 -0.11433,-0.152171 -0.29827,-0.836921 -0.40876,-1.521671 -0.1105,-0.68475 -0.29533,-1.3695 -0.41074,-1.521667 -0.5106,-0.673207 -1.70532,-8.202256 -2.06339,-13.003333 -0.21562,-2.891167 -0.47715,-5.596964 -0.58116,-6.012885 -0.10402,-0.415922 -0.10709,-0.969994 -0.007,-1.231272 0.10026,-0.261278 0.24493,-1.850728 0.32149,-3.532115 0.0766,-1.681383 0.17539,-3.243811 0.21964,-3.472061 0.40002,-2.0634 0.53984,-2.66482 0.67276,-2.893723 0.0848,-0.145964 0.12203,-0.78691 0.0828,-1.424327 -0.0392,-0.637418 0.0619,-1.241216 0.22456,-1.341773 0.1627,-0.100557 0.29583,-0.530409 0.29583,-0.955219 0,-0.820677 0.36024,-2.096074 0.99567,-3.525104 0.21322,-0.479497 0.38766,-1.092195 0.38766,-1.361549 0,-0.269354 0.17606,-0.686288 0.39124,-0.926521 0.21518,-0.240232 0.65941,-1.246034 0.98719,-2.235118 0.49971,-1.507919 1.42784,-3.591147 2.46524,-5.533333 0.9484,-1.775556 2.24473,-4.51715 2.17083,-4.591048 -0.21353,-0.21354 -3.78243,2.163235 -5.09066,3.39022 -0.7853,0.736539 -2.14047,1.837161 -3.01149,2.445828 -1.96948,1.376273 -7.32415,6.507037 -7.32119,7.01506 0.002,0.332888 -0.66266,1.294302 -1.74888,2.52994 -0.20065,0.22825 -0.52262,0.810625 -0.71549,1.294166 -0.19287,0.483539 -0.5883,1.094212 -0.87873,1.357045 -0.29043,0.262836 -0.52805,0.645336 -0.52805,0.850003 0,0.204664 -0.1245,0.372119 -0.27667,0.372119 -0.15216,0 -0.27666,0.261359 -0.27666,0.580798 0,0.31944 -0.43393,1.284315 -0.96428,2.144167 -0.53036,0.859852 -1.07593,2.162222 -1.21239,2.894155 -0.13646,0.73193 -0.50181,1.60343 -0.8119,1.936666 -0.43022,0.462344 -0.61143,1.163005 -0.76487,2.957548 -0.1106,1.293416 -0.38265,2.62991 -0.60457,2.969983 -0.47019,0.720548 -0.64618,8.642549 -0.27513,12.385017 0.31812,3.20858 1.33281,8.492419 1.74611,9.092594 0.19541,0.283761 0.29066,0.684341 0.21167,0.890178 -0.15608,0.406742 2.75472,6.546213 3.53083,7.447228 0.26214,0.304333 0.74972,1.082458 1.08351,1.729166 0.33379,0.646709 0.71478,1.175834 0.84665,1.175834 0.13188,0 0.77293,0.709387 1.42457,1.576416 0.65164,0.867026 1.46492,1.881206 1.8073,2.253732 0.34237,0.372523 0.62425,0.752514 0.62639,0.844417 0.0125,0.536355 7.47409,6.610032 8.15777,6.640376 0.15217,0.0068 1.14817,-0.22947 2.21334,-0.524941 z m 24.402283,-3.561389 c 4.86801,-0.695983 8.9671,-1.052922 16.40605,-1.428607 7.89159,-0.398547 8.3,-0.452184 8.3,-1.090111 0,-0.282076 0.56141,-1.007042 1.24758,-1.61103 1.4218,-1.251521 2.87021,-3.936364 3.61208,-6.69553 0.26594,-0.989083 0.5837,-1.929731 0.70613,-2.09033 0.99094,-1.299858 1.73198,-16.289566 1.11396,-22.533003 -0.30588,-3.090054 -0.817,-5.911075 -1.37852,-7.608334 -0.68097,-2.058303 -0.87457,-2.861898 -0.87457,-3.630143 0,-0.453305 -0.13297,-0.957162 -0.29549,-1.119687 -0.16253,-0.162522 -0.34687,-1.254096 -0.40965,-2.425722 -0.0837,-1.561573 -0.25717,-2.312042 -0.6499,-2.811315 -0.29465,-0.374598 -0.62239,-1.206549 -0.7283,-1.848778 -0.1059,-0.642229 -0.27687,-1.292188 -0.37992,-1.444355 -0.10305,-0.152166 -0.41805,-1.023666 -0.70001,-1.936666 -0.82719,-2.678507 -1.62943,-4.918949 -2.08431,-5.82086 -0.99467,-1.972198 -3.19897,-5.406948 -4.6168,-7.193901 -1.9658,-2.47761 -5.96098,-6.322178 -7.16218,-6.892181 -0.51329,-0.243576 -1.00018,-0.55114 -1.08197,-0.683475 -0.30414,-0.49211 -2.53591,-1.490966 -3.47147,-1.553698 -0.53258,-0.03571 -1.6842,-0.158411 -2.55916,-0.272666 -1.01628,-0.132709 -1.59084,-0.107632 -1.59084,0.06944 0,0.33033 -2.12548,1.182346 -2.94954,1.182346 -0.31865,0 -0.73106,0.182769 -0.91645,0.406154 -0.18539,0.223386 -0.41851,0.390031 -0.51804,0.370324 -0.0995,-0.01971 -0.55447,0.120224 -1.01097,0.310958 -0.4565,0.190734 -1.55949,0.452308 -2.4511,0.581275 -1.01371,0.146628 -2.05032,0.523756 -2.76666,1.00654 -0.63007,0.42463 -1.58132,0.977445 -2.1139,1.228477 -1.88029,0.886269 -7.98731,7.103071 -7.5974,7.733964 0.0825,0.133499 -0.0574,0.643732 -0.31081,1.133853 -0.25345,0.490121 -0.56073,1.209652 -0.68285,1.598958 -0.59982,1.912209 -2.219283,6.209529 -2.443453,6.483789 -0.70795,0.866169 -0.99751,8.673588 -0.77034,20.770725 0.0455,2.422836 0.0315,2.480884 -0.64515,2.669922 -0.4371,0.122115 -0.51347,0.203389 -0.2075,0.220816 0.29136,0.0166 0.48416,0.249005 0.48416,0.58362 0,0.305822 0.249,0.769241 0.55334,1.02982 0.58987,0.505063 0.75013,1.856519 0.25634,2.161696 -0.18487,0.11426 -0.0732,0.340264 0.29573,0.598698 0.45071,0.315691 0.576,0.656765 0.52297,1.423616 -0.0384,0.554653 0.0884,1.300627 0.281663,1.657718 0.20263,0.374374 0.31194,1.281066 0.25818,2.141552 -0.0632,1.01193 0.0181,1.534872 0.25262,1.624562 0.19787,0.07567 0.34583,0.611071 0.34583,1.251366 0,0.615508 0.1192,1.33529 0.26489,1.599518 0.14569,0.264227 0.44886,1.289662 0.67371,2.278745 0.50823,2.235644 0.95932,3.450252 1.7589,4.735989 0.34237,0.550544 0.6225,1.142484 0.6225,1.31542 0,0.172938 0.54275,1.091992 1.20612,2.042345 0.66337,0.950352 1.56599,2.242679 2.00584,2.871836 4.12257,5.897017 6.81294,8.657804 8.04866,8.259327 0.18276,-0.05894 2.05026,-0.352772 4.15,-0.652972 z m 37.33192,-2.108574 c 0.97479,-0.508389 1.87348,-0.532652 2.26479,-0.06115 0.36608,0.441096 3.8182,0.412917 4.26594,-0.03482 0.22626,-0.226263 0.0374,-0.570896 -0.71161,-1.298289 -0.5608,-0.544643 -1.26592,-1.473023 -1.56694,-2.06307 -0.30102,-0.590044 -0.76685,-1.236661 -1.03518,-1.436926 -0.48113,-0.359083 -1.25001,-2.142781 -1.79678,-4.168282 -0.51337,-1.901785 -1.04276,-1.128839 -1.04276,1.52251 0,1.052183 -0.14551,1.84875 -0.38754,2.121538 -0.21315,0.240233 -0.74548,1.513284 -1.18295,2.829005 -0.69906,2.102451 -0.74428,2.42723 -0.37329,2.681232 0.56896,0.389547 0.65291,0.384628 1.56632,-0.09175 z m 17.56818,-5.673371 c 0.64366,-1.152587 1.62261,-3.625232 1.62261,-4.098396 0,-0.295452 0.18277,-0.688869 0.40616,-0.874264 0.22338,-0.185391 0.38814,-0.418511 0.36612,-0.518041 -0.0527,-0.238327 0.59032,-2.481897 0.87515,-3.053418 0.77309,-1.55122 1.92829,-6.01498 2.08484,-8.055881 0.0992,-1.293416 0.22843,-2.974166 0.28716,-3.735 0.0587,-0.760833 0.20551,-2.370466 0.32618,-3.576962 0.37177,-3.717139 0.20805,-8.910623 -0.40182,-12.746371 -0.64146,-4.03447 -1.06916,-6.099017 -1.43286,-6.916667 -0.13537,-0.304333 -0.4539,-1.113583 -0.70783,-1.798333 -1.52276,-4.106151 -6.66209,-8.642367 -9.21334,-8.132119 -0.6353,0.127062 -1.14001,0.579838 -1.97801,1.774496 -0.6188,0.882149 -1.12508,1.68848 -1.12508,1.791848 0,0.103369 -0.3735,0.994891 -0.83,1.981163 -0.4565,0.98627 -0.83,1.930353 -0.83,2.097964 0,0.16761 -0.16462,0.501297 -0.36583,0.74153 -0.61001,0.728342 -1.87695,5.861905 -2.12898,8.626478 -0.13037,1.43017 -0.41792,3.271411 -0.639,4.091648 -0.28243,1.047903 -0.32536,1.747155 -0.14436,2.351667 0.14168,0.47318 0.31675,3.832461 0.38905,7.465072 0.15962,8.020307 0.90956,12.960005 2.36947,15.607168 1.18417,2.147193 5.17039,5.7284 7.72233,6.93771 1.3781,0.653052 2.99452,0.671741 3.34804,0.03871 z M 156.90149,43.185393 c 0.15571,-0.0969 0.56366,-1.109929 0.90655,-2.251179 0.69092,-2.299545 2.04517,-5.442185 2.62532,-6.092264 0.52823,-0.591892 3.18756,-5.880393 3.03412,-6.033829 -0.0695,-0.06954 -0.20466,0.07742 -0.30027,0.326572 -0.0956,0.249155 -0.30453,0.372238 -0.46426,0.273518 -0.15973,-0.09872 -0.21031,-0.04986 -0.11239,0.108574 0.29043,0.469925 -0.5834,0.980709 -1.40512,0.821337 -0.50571,-0.09808 -1.08715,0.05398 -1.72684,0.45161 -1.583,0.983986 -2.05058,1.254328 -2.63666,1.524467 -1.50196,0.692295 -2.70435,5.696166 -2.03271,8.459344 0.18792,0.77312 0.5217,1.620367 0.74172,1.882777 0.28308,0.337603 0.34719,0.807662 0.21927,1.607619 -0.26373,1.649298 0.13958,1.967086 0.53251,0.419581 0.18461,-0.727071 0.46305,-1.401228 0.61876,-1.498127 z"
       id="path37"
       inkscape:connector-curvature="0" />
  </g>
</svg>
